<svg xmlns="http://www.w3.org/2000/svg" viewBox="0 0 512 512" width="512" height="512"><rect width="512" height="512" rx="112" fill="#241A15"/><g transform="translate(92.16,81.92) scale(3.3792)"><rect x="20" y="80" width="60" height="3.6" rx="1.8" fill="#FBF7F0"/><path d="M26,80 L26,54 Q32.7,61 39.3,54 Q46,61 52.7,54 Q59.3,61 66,54 Q70.6,59 74,54 L74,80 Z" fill="#FBF7F0"/><path d="M38,54 L38,41 Q44.5,48 51,41 Q57.5,48 62,41 L62,54 Z" fill="#FBF7F0"/><rect x="48.6" y="30" width="2.8" height="12" rx="1.4" fill="#FBF7F0"/><path d="M50,29 C46.2,25.3 47.4,20.5 50,17.1 C52.6,20.5 53.8,25.3 50,29 Z" fill="#E39262"/></g></svg>