<svg xmlns="http://www.w3.org/2000/svg" viewBox="0 0 900 720" width="900" height="720"><g transform="translate(350.0,70) scale(2.0)"><path d="M19,83 C19,80.4 23,80.4 27,80.4 L73,80.4 C77,80.4 81,80.4 81,83" fill="none" stroke="#FBF7F0" stroke-width="3.2" stroke-linecap="round"/><path d="M26,80.4 L26,56" fill="none" stroke="#FBF7F0" stroke-width="3.2" stroke-linecap="round"/><path d="M74,80.4 L74,56" fill="none" stroke="#FBF7F0" stroke-width="3.2" stroke-linecap="round"/><path d="M26,56 Q32.7,62.4 39.3,56 Q46,62.4 52.7,56 Q59.3,62.4 66,56 Q70.6,60.7 74,56" fill="none" stroke="#FBF7F0" stroke-width="2.7" stroke-linecap="round" stroke-linejoin="round"/><path d="M38,56 L38,42" fill="none" stroke="#FBF7F0" stroke-width="3.2" stroke-linecap="round"/><path d="M62,56 L62,42" fill="none" stroke="#FBF7F0" stroke-width="3.2" stroke-linecap="round"/><path d="M38,42 Q44.5,48 51,42 Q57.5,48 62,42" fill="none" stroke="#FBF7F0" stroke-width="2.7" stroke-linecap="round" stroke-linejoin="round"/><path d="M50,42 L50,31.5" fill="none" stroke="#FBF7F0" stroke-width="3.2" stroke-linecap="round"/><path d="M50,30.5 C46.2,26.8 47.4,22 50,18.6 C52.6,22 53.8,26.8 50,30.5 Z" fill="#E39262"/></g><g transform="translate(57.410,366.000) scale(1.0000)"><path d="M17.458 0.0V-1.8059999999999998L25.369999999999997 -3.0959999999999996V-66.64999999999999H11.18L4.643999999999999 -49.62199999999999H2.15V-68.8H58.135999999999996V-49.62199999999999H55.556L49.105999999999995 -66.64999999999999H34.83V-3.0959999999999996L42.742 -1.8059999999999998V0.0Z M62.693999999999996 -1.7199999999999998 68.714 -2.5799999999999996V-66.22L62.693999999999996 -67.08V-68.8H77.314V-35.26Q80.496 -39.903999999999996 84.79599999999999 -42.613Q89.096 -45.321999999999996 94.084 -45.321999999999996Q100.276 -45.321999999999996 103.845 -42.226Q107.41399999999999 -39.129999999999995 107.41399999999999 -33.024V-2.5799999999999996L113.434 -1.7199999999999998V0.0H93.654V-1.7199999999999998L98.814 -2.5799999999999996V-32.852Q98.814 -37.324 97.008 -39.775Q95.202 -42.226 91.41799999999999 -42.226Q87.46199999999999 -42.226 83.80699999999999 -39.345Q80.152 -36.464 77.314 -32.25V-2.5799999999999996L82.47399999999999 -1.7199999999999998V0.0H62.693999999999996Z M119.36799999999998 -22.273999999999997Q119.36799999999998 -29.153999999999996 122.33499999999998 -34.357Q125.30199999999999 -39.559999999999995 130.33299999999997 -42.440999999999995Q135.36399999999998 -45.321999999999996 141.55599999999998 -45.321999999999996Q146.974 -45.321999999999996 151.274 -42.914Q155.57399999999998 -40.506 157.98199999999997 -36.248999999999995Q160.39 -31.991999999999997 160.476 -26.488H128.82799999999997V-17.974Q128.82799999999997 -10.405999999999999 132.22499999999997 -5.718999999999999Q135.62199999999999 -1.032 142.07199999999997 -1.032Q148.00599999999997 -1.032 152.56399999999996 -4.385999999999999Q157.12199999999999 -7.739999999999999 158.154 -13.072H160.13199999999998Q158.928 -6.707999999999999 154.026 -2.9239999999999995Q149.124 0.8599999999999999 142.07199999999997 0.8599999999999999Q135.70799999999997 0.8599999999999999 130.54799999999997 -2.021Q125.38799999999999 -4.901999999999999 122.37799999999999 -10.148Q119.36799999999998 -15.393999999999998 119.36799999999998 -22.273999999999997ZM151.016 -28.637999999999998Q151.016 -36.12 148.694 -39.775Q146.37199999999999 -43.43 141.46999999999997 -43.43Q135.70799999999997 -43.43 132.52599999999998 -39.388Q129.344 -35.346 128.914 -28.637999999999998Z M203.30399999999997 0.0V-1.8059999999999998L211.21599999999998 -3.0959999999999996V-66.64999999999999H197.02599999999998L190.48999999999998 -49.62199999999999H187.99599999999998V-68.8H243.98199999999997V-49.62199999999999H241.402L234.95199999999997 -66.64999999999999H220.676V-3.0959999999999996L228.58799999999997 -1.8059999999999998V0.0Z M244.66999999999996 -10.578Q244.66999999999996 -18.662 251.46399999999997 -22.058999999999997Q258.258 -25.456 267.202 -25.456H272.96399999999994V-32.077999999999996Q272.96399999999994 -36.55 271.97499999999997 -39.001Q270.986 -41.452 268.92199999999997 -42.441Q266.85799999999995 -43.43 263.332 -43.43Q259.28999999999996 -43.43 257.31199999999995 -41.839Q255.33399999999997 -40.248 255.33399999999997 -37.581999999999994Q255.33399999999997 -35.087999999999994 257.74199999999996 -34.314Q257.74199999999996 -32.163999999999994 256.10799999999995 -30.529999999999994Q254.47399999999996 -28.895999999999997 252.23799999999997 -28.895999999999997Q249.82999999999998 -28.895999999999997 248.368 -30.229Q246.90599999999998 -31.561999999999998 246.90599999999998 -34.314Q246.90599999999998 -39.302 251.89399999999995 -42.312Q256.88199999999995 -45.321999999999996 264.364 -45.321999999999996Q281.56399999999996 -45.321999999999996 281.56399999999996 -30.357999999999997V-5.762Q281.56399999999996 -3.8699999999999997 282.381 -2.881Q283.198 -1.892 284.746 -1.892Q286.20799999999997 -1.892 287.068 -2.881Q287.928 -3.8699999999999997 287.928 -5.59H289.734Q289.734 -2.5799999999999996 287.799 -0.8599999999999999Q285.864 0.8599999999999999 282.424 0.8599999999999999Q278.46799999999996 0.8599999999999999 275.75899999999996 -1.4189999999999998Q273.04999999999995 -3.6979999999999995 272.96399999999994 -8.514Q270.9 -4.128 266.643 -1.6340000000000001Q262.38599999999997 0.8599999999999999 257.226 0.8599999999999999Q251.72199999999998 0.8599999999999999 248.19599999999997 -2.021Q244.66999999999996 -4.901999999999999 244.66999999999996 -10.578ZM272.96399999999994 -14.62V-23.563999999999997H267.202Q260.15 -23.563999999999997 256.667 -20.424999999999997Q253.18399999999997 -17.285999999999998 253.18399999999997 -11.61Q253.18399999999997 -6.879999999999999 255.41999999999996 -4.901999999999999Q257.65599999999995 -2.924 261.95599999999996 -2.924Q264.27799999999996 -2.924 266.7289999999999 -4.3Q269.17999999999995 -5.675999999999999 270.9 -8.299Q272.61999999999995 -10.921999999999999 272.96399999999994 -14.62Z M294.292 -9.975999999999999Q294.292 -12.469999999999999 295.625 -13.889Q296.95799999999997 -15.307999999999998 299.19399999999996 -15.307999999999998Q300.914 -15.307999999999998 302.118 -14.447999999999999Q303.322 -13.588 303.83799999999997 -12.04Q301.94599999999997 -9.975999999999999 301.94599999999997 -7.653999999999999Q301.94599999999997 -4.9879999999999995 304.354 -3.01Q306.762 -1.032 310.804 -1.032Q316.222 -1.032 319.662 -3.4829999999999997Q323.102 -5.933999999999999 323.102 -10.062Q323.102 -12.469999999999999 321.64 -13.674Q320.178 -14.877999999999998 315.964 -16.426L302.978 -21.156Q295.324 -23.907999999999998 295.324 -31.389999999999997Q295.324 -37.495999999999995 299.538 -41.40899999999999Q303.752 -45.321999999999996 311.14799999999997 -45.321999999999996Q317.25399999999996 -45.321999999999996 321.597 -42.527Q325.94 -39.732 325.94 -34.571999999999996Q325.94 -32.507999999999996 324.822 -31.260999999999996Q323.704 -30.014 321.89799999999997 -30.014Q320.092 -30.014 318.931 -31.003Q317.77 -31.991999999999997 317.77 -33.711999999999996Q318.888 -34.571999999999996 319.318 -35.56099999999999Q319.748 -36.55 319.748 -37.925999999999995Q319.748 -40.333999999999996 317.64099999999996 -41.882Q315.534 -43.43 311.14799999999997 -43.43Q307.364 -43.43 304.655 -42.269Q301.94599999999997 -41.108 300.56999999999994 -39.215999999999994Q299.19399999999996 -37.324 299.19399999999996 -35.346Q299.19399999999996 -33.282 300.69899999999996 -32.077999999999996Q302.204 -30.874 306.246 -29.412L318.286 -25.112Q322.5 -23.563999999999997 324.65 -20.811999999999998Q326.79999999999995 -18.06 326.79999999999995 -13.674Q326.79999999999995 -7.395999999999999 322.84399999999994 -3.268Q318.888 0.8599999999999999 310.804 0.8599999999999999Q303.752 0.8599999999999999 299.022 -2.1499999999999995Q294.292 -5.159999999999999 294.292 -9.975999999999999Z M339.44199999999995 -11.008V-41.967999999999996L333.33599999999996 -42.827999999999996V-44.547999999999995H339.44199999999995V-51.68599999999999L348.042 -53.836V-44.547999999999995H359.222V-42.827999999999996L348.042 -41.967999999999996V-11.18Q348.042 -2.064 354.578 -2.064Q355.95399999999995 -2.064 357.20099999999996 -2.4939999999999998Q358.448 -2.924 359.179 -3.354Q359.90999999999997 -3.784 360.08199999999994 -3.9559999999999995L361.19999999999993 -2.5799999999999996Q357.3299999999999 0.8599999999999999 351.912 0.8599999999999999Q346.23599999999993 0.8599999999999999 342.83899999999994 -1.978Q339.44199999999995 -4.816 339.44199999999995 -11.008Z M363.436 -22.273999999999997Q363.436 -29.153999999999996 366.403 -34.357Q369.37 -39.559999999999995 374.401 -42.440999999999995Q379.432 -45.321999999999996 385.624 -45.321999999999996Q391.042 -45.321999999999996 395.342 -42.914Q399.642 -40.506 402.04999999999995 -36.248999999999995Q404.45799999999997 -31.991999999999997 404.544 -26.488H372.896V-17.974Q372.896 -10.405999999999999 376.293 -5.718999999999999Q379.69 -1.032 386.14 -1.032Q392.074 -1.032 396.632 -4.385999999999999Q401.19 -7.739999999999999 402.222 -13.072H404.2Q402.996 -6.707999999999999 398.094 -2.9239999999999995Q393.192 0.8599999999999999 386.14 0.8599999999999999Q379.776 0.8599999999999999 374.616 -2.021Q369.456 -4.901999999999999 366.446 -10.148Q363.436 -15.393999999999998 363.436 -22.273999999999997ZM395.084 -28.637999999999998Q395.084 -36.12 392.762 -39.775Q390.44 -43.43 385.538 -43.43Q379.776 -43.43 376.594 -39.388Q373.412 -35.346 372.98199999999997 -28.637999999999998Z M469.13 0.8599999999999999 443.502 -65.704V-5.2459999999999996L451.758 -1.8059999999999998V0.0H433.354V-1.8059999999999998L441.438 -5.2459999999999996V-65.704L433.526 -66.908V-68.8H452.532L474.118 -13.588L496.134 -68.8H513.506V-66.908L505.594 -65.704V-3.0959999999999996L513.506 -1.8059999999999998V0.0H488.222V-1.8059999999999998L496.134 -3.0959999999999996V-63.123999999999995L470.678 0.8599999999999999Z M521.59 -10.578Q521.59 -18.662 528.384 -22.058999999999997Q535.178 -25.456 544.1220000000001 -25.456H549.884V-32.077999999999996Q549.884 -36.55 548.895 -39.001Q547.9060000000001 -41.452 545.8420000000001 -42.441Q543.778 -43.43 540.2520000000001 -43.43Q536.21 -43.43 534.232 -41.839Q532.254 -40.248 532.254 -37.581999999999994Q532.254 -35.087999999999994 534.662 -34.314Q534.662 -32.163999999999994 533.028 -30.529999999999994Q531.394 -28.895999999999997 529.158 -28.895999999999997Q526.75 -28.895999999999997 525.288 -30.229Q523.826 -31.561999999999998 523.826 -34.314Q523.826 -39.302 528.8140000000001 -42.312Q533.802 -45.321999999999996 541.284 -45.321999999999996Q558.484 -45.321999999999996 558.484 -30.357999999999997V-5.762Q558.484 -3.8699999999999997 559.301 -2.881Q560.118 -1.892 561.666 -1.892Q563.128 -1.892 563.988 -2.881Q564.848 -3.8699999999999997 564.848 -5.59H566.654Q566.654 -2.5799999999999996 564.719 -0.8599999999999999Q562.784 0.8599999999999999 559.344 0.8599999999999999Q555.388 0.8599999999999999 552.6790000000001 -1.4189999999999998Q549.97 -3.6979999999999995 549.884 -8.514Q547.82 -4.128 543.5630000000001 -1.6340000000000001Q539.306 0.8599999999999999 534.146 0.8599999999999999Q528.642 0.8599999999999999 525.116 -2.021Q521.59 -4.901999999999999 521.59 -10.578ZM549.884 -14.62V-23.563999999999997H544.1220000000001Q537.07 -23.563999999999997 533.587 -20.424999999999997Q530.104 -17.285999999999998 530.104 -11.61Q530.104 -6.879999999999999 532.34 -4.901999999999999Q534.576 -2.924 538.876 -2.924Q541.198 -2.924 543.649 -4.3Q546.1 -5.675999999999999 547.8199999999999 -8.299Q549.54 -10.921999999999999 549.884 -14.62Z M568.804 0.0V-1.7199999999999998L574.824 -2.5799999999999996V-66.22L568.804 -67.08V-68.8H583.424V-24.682L603.1179999999999 -40.849999999999994L595.636 -42.827999999999996V-44.547999999999995H611.804V-42.827999999999996L606.3 -40.849999999999994L592.0239999999999 -29.153999999999996L612.1479999999999 -2.4939999999999998L616.7919999999999 -1.7199999999999998V0.0H596.6679999999999V-1.7199999999999998L601.828 -2.5799999999999996L585.66 -23.907999999999998L583.424 -22.016V-2.5799999999999996L588.584 -1.7199999999999998V0.0Z M617.4799999999999 -22.273999999999997Q617.4799999999999 -29.153999999999996 620.4469999999999 -34.357Q623.4139999999999 -39.559999999999995 628.4449999999999 -42.440999999999995Q633.4759999999999 -45.321999999999996 639.6679999999999 -45.321999999999996Q645.0859999999999 -45.321999999999996 649.386 -42.914Q653.6859999999999 -40.506 656.0939999999999 -36.248999999999995Q658.502 -31.991999999999997 658.588 -26.488H626.9399999999999V-17.974Q626.9399999999999 -10.405999999999999 630.337 -5.718999999999999Q633.7339999999999 -1.032 640.184 -1.032Q646.1179999999999 -1.032 650.6759999999999 -4.385999999999999Q655.2339999999999 -7.739999999999999 656.266 -13.072H658.2439999999999Q657.04 -6.707999999999999 652.1379999999999 -2.9239999999999995Q647.2359999999999 0.8599999999999999 640.184 0.8599999999999999Q633.8199999999999 0.8599999999999999 628.6599999999999 -2.021Q623.4999999999999 -4.901999999999999 620.4899999999999 -10.148Q617.4799999999999 -15.393999999999998 617.4799999999999 -22.273999999999997ZM649.1279999999999 -28.637999999999998Q649.1279999999999 -36.12 646.8059999999999 -39.775Q644.4839999999999 -43.43 639.5819999999999 -43.43Q633.8199999999999 -43.43 630.6379999999999 -39.388Q627.4559999999999 -35.346 627.026 -28.637999999999998Z M665.0379999999999 -1.7199999999999998 671.0579999999999 -2.5799999999999996V-41.967999999999996L665.0379999999999 -42.827999999999996V-44.547999999999995H679.6579999999999V-37.925999999999995Q685.0759999999999 -45.321999999999996 691.8699999999999 -45.321999999999996Q695.1379999999999 -45.321999999999996 697.6319999999998 -43.644999999999996Q700.1259999999999 -41.967999999999996 700.1259999999999 -38.872Q700.1259999999999 -36.635999999999996 698.6639999999999 -35.131Q697.2019999999999 -33.626 694.7939999999999 -33.626Q692.0419999999999 -33.626 690.3219999999999 -35.775999999999996Q691.2679999999999 -36.98 691.2679999999999 -38.355999999999995Q691.2679999999999 -39.818 690.2789999999999 -40.721Q689.2899999999998 -41.623999999999995 687.656 -41.623999999999995Q685.8499999999999 -41.623999999999995 683.9579999999999 -39.946999999999996Q682.0659999999999 -38.269999999999996 679.6579999999999 -34.744V-2.5799999999999996L686.5379999999999 -1.7199999999999998V0.0H665.0379999999999Z M703.7379999999999 -1.7199999999999998 709.7579999999999 -2.5799999999999996V-41.967999999999996L703.7379999999999 -42.827999999999996V-44.547999999999995H718.358V-37.925999999999995Q723.776 -45.321999999999996 730.5699999999999 -45.321999999999996Q733.838 -45.321999999999996 736.3319999999999 -43.644999999999996Q738.8259999999999 -41.967999999999996 738.8259999999999 -38.872Q738.8259999999999 -36.635999999999996 737.3639999999999 -35.131Q735.9019999999999 -33.626 733.4939999999999 -33.626Q730.742 -33.626 729.0219999999999 -35.775999999999996Q729.968 -36.98 729.968 -38.355999999999995Q729.968 -39.818 728.9789999999999 -40.721Q727.9899999999999 -41.623999999999995 726.356 -41.623999999999995Q724.55 -41.623999999999995 722.6579999999999 -39.946999999999996Q720.766 -38.269999999999996 718.358 -34.744V-2.5799999999999996L725.2379999999999 -1.7199999999999998V0.0H703.7379999999999Z M744.244 -9.975999999999999Q744.244 -12.469999999999999 745.577 -13.889Q746.91 -15.307999999999998 749.146 -15.307999999999998Q750.866 -15.307999999999998 752.0699999999999 -14.447999999999999Q753.274 -13.588 753.79 -12.04Q751.898 -9.975999999999999 751.898 -7.653999999999999Q751.898 -4.9879999999999995 754.306 -3.01Q756.7139999999999 -1.032 760.756 -1.032Q766.174 -1.032 769.614 -3.4829999999999997Q773.054 -5.933999999999999 773.054 -10.062Q773.054 -12.469999999999999 771.592 -13.674Q770.13 -14.877999999999998 765.9159999999999 -16.426L752.93 -21.156Q745.276 -23.907999999999998 745.276 -31.389999999999997Q745.276 -37.495999999999995 749.49 -41.40899999999999Q753.704 -45.321999999999996 761.1 -45.321999999999996Q767.206 -45.321999999999996 771.549 -42.527Q775.8919999999999 -39.732 775.8919999999999 -34.571999999999996Q775.8919999999999 -32.507999999999996 774.7739999999999 -31.260999999999996Q773.656 -30.014 771.85 -30.014Q770.044 -30.014 768.883 -31.003Q767.722 -31.991999999999997 767.722 -33.711999999999996Q768.84 -34.571999999999996 769.27 -35.56099999999999Q769.6999999999999 -36.55 769.6999999999999 -37.925999999999995Q769.6999999999999 -40.333999999999996 767.593 -41.882Q765.486 -43.43 761.1 -43.43Q757.316 -43.43 754.607 -42.269Q751.898 -41.108 750.5219999999999 -39.215999999999994Q749.146 -37.324 749.146 -35.346Q749.146 -33.282 750.651 -32.077999999999996Q752.156 -30.874 756.198 -29.412L768.2379999999999 -25.112Q772.452 -23.563999999999997 774.602 -20.811999999999998Q776.752 -18.06 776.752 -13.674Q776.752 -7.395999999999999 772.796 -3.268Q768.84 0.8599999999999999 760.756 0.8599999999999999Q753.704 0.8599999999999999 748.9739999999999 -2.1499999999999995Q744.244 -5.159999999999999 744.244 -9.975999999999999Z" fill="#FBF7F0" /></g><circle cx="844.31" cy="365.38" r="4.13" fill="#E39262"/><g transform="translate(291.739,418.000) scale(1.0000)"><path d="M6.87451171875 -11.1884765625H6.67041015625Q6.59619140625 -11.40185546875 6.433837890625 -11.6708984375Q6.271484375 -11.93994140625 6.007080078125 -12.176513671875Q5.74267578125 -12.4130859375 5.366943359375 -12.57080078125Q4.9912109375 -12.728515625 4.48095703125 -12.728515625Q4.0263671875 -12.728515625 3.673828125 -12.58935546875Q3.3212890625 -12.4501953125 3.084716796875 -12.19970703125Q2.84814453125 -11.94921875 2.7275390625 -11.60595703125Q2.60693359375 -11.2626953125 2.60693359375 -10.84521484375Q2.60693359375 -10.17724609375 2.982666015625 -9.569580078125Q3.3583984375 -8.9619140625 3.92431640625 -8.3681640625Q4.490234375 -7.7744140625 5.14892578125 -7.1806640625Q5.8076171875 -6.5869140625 6.37353515625 -5.94677734375Q6.939453125 -5.306640625 7.315185546875 -4.606201171875Q7.69091796875 -3.90576171875 7.69091796875 -3.0986328125Q7.69091796875 -2.49560546875 7.482177734375 -1.887939453125Q7.2734375 -1.2802734375 6.83740234375 -0.7978515625Q6.4013671875 -0.3154296875 5.71484375 -0.013916015625Q5.0283203125 0.28759765625 4.08203125 0.28759765625Q3.55322265625 0.28759765625 3.075439453125 0.190185546875Q2.59765625 0.0927734375 2.194091796875 -0.051025390625Q1.79052734375 -0.19482421875 1.470458984375 -0.36181640625Q1.150390625 -0.52880859375 0.9462890625 -0.66796875L1.15966796875 -2.71826171875H1.3916015625Q1.49365234375 -2.2822265625 1.7255859375 -1.887939453125Q1.95751953125 -1.49365234375 2.296142578125 -1.192138671875Q2.634765625 -0.890625 3.07080078125 -0.709716796875Q3.5068359375 -0.52880859375 4.0263671875 -0.52880859375Q4.49951171875 -0.52880859375 4.875244140625 -0.672607421875Q5.2509765625 -0.81640625 5.52001953125 -1.071533203125Q5.7890625 -1.32666015625 5.932861328125 -1.67919921875Q6.07666015625 -2.03173828125 6.07666015625 -2.44921875Q6.07666015625 -3.03369140625 5.86328125 -3.530029296875Q5.64990234375 -4.0263671875 5.302001953125 -4.4716796875Q4.9541015625 -4.9169921875 4.513427734375 -5.33447265625Q4.07275390625 -5.751953125 3.60888671875 -6.174072265625Q3.14501953125 -6.59619140625 2.704345703125 -7.04150390625Q2.263671875 -7.48681640625 1.915771484375 -7.992431640625Q1.56787109375 -8.498046875 1.3544921875 -9.077880859375Q1.14111328125 -9.65771484375 1.14111328125 -10.353515625Q1.14111328125 -11.08642578125 1.424072265625 -11.675537109375Q1.70703125 -12.2646484375 2.175537109375 -12.68212890625Q2.64404296875 -13.099609375 3.23779296875 -13.322265625Q3.83154296875 -13.544921875 4.46240234375 -13.544921875Q4.92626953125 -13.544921875 5.31591796875 -13.470703125Q5.70556640625 -13.396484375 6.016357421875 -13.29443359375Q6.3271484375 -13.1923828125 6.55908203125 -13.09033203125Q6.791015625 -12.98828125 6.939453125 -12.92333984375Z M15.774453125 -0.037109375Q15.87650390625 -0.185546875 16.00638671875 -0.477783203125Q16.13626953125 -0.77001953125 16.21048828125 -1.21533203125Q16.3125390625 -1.86474609375 16.437783203125 -2.676513671875Q16.56302734375 -3.48828125 16.697548828125 -4.37890625Q16.8320703125 -5.26953125 16.966591796875 -6.201904296875Q17.10111328125 -7.13427734375 17.226357421875 -8.038818359375Q17.3516015625 -8.943359375 17.467568359375 -9.782958984375Q17.58353515625 -10.62255859375 17.67630859375 -11.318359375Q17.76908203125 -12.01416015625 17.829384765625 -12.529052734375Q17.8896875 -13.0439453125 17.91751953125 -13.3037109375H19.0957421875L24.93119140625 -2.3935546875L30.72025390625 -13.3037109375H31.6016015625L33.1230859375 -2.2822265625Q33.18802734375 -1.7626953125 33.26224609375 -1.3916015625Q33.33646484375 -1.0205078125 33.41068359375 -0.756103515625Q33.48490234375 -0.49169921875 33.554482421875 -0.320068359375Q33.6240625 -0.1484375 33.68900390625 -0.037109375V0.0H31.35111328125V-0.037109375Q31.3975 -0.13916015625 31.439248046875 -0.37109375Q31.48099609375 -0.60302734375 31.48099609375 -0.927734375Q31.48099609375 -1.04833984375 31.47171875 -1.173583984375Q31.46244140625 -1.298828125 31.44388671875 -1.447265625L30.2656640625 -10.3349609375L24.79203125 -0.037109375L24.15189453125 -0.111328125L18.64115234375 -10.427734375Q18.3164453125 -8.22900390625 18.075234375 -6.3642578125Q17.97318359375 -5.56640625 17.8711328125 -4.773193359375Q17.76908203125 -3.97998046875 17.690224609375 -3.29345703125Q17.6113671875 -2.60693359375 17.56498046875 -2.082763671875Q17.51859375 -1.55859375 17.51859375 -1.30810546875Q17.51859375 -0.99267578125 17.5371484375 -0.75146484375Q17.555703125 -0.51025390625 17.5742578125 -0.34326171875Q17.60208984375 -0.1484375 17.629921875 0.0H15.774453125Z M51.43953125 0.0V-0.037109375Q51.4580859375 -0.08349609375 51.46736328125 -0.17626953125Q51.476640625 -0.26904296875 51.476640625 -0.34326171875Q51.476640625 -0.630859375 51.397783203125 -0.978759765625Q51.31892578125 -1.32666015625 51.09626953125 -1.84619140625L49.9737109375 -4.36962890625Q49.4541796875 -4.38818359375 48.59138671875 -4.38818359375Q47.72859375 -4.38818359375 46.726640625 -4.38818359375Q45.99373046875 -4.38818359375 45.311845703125 -4.38818359375Q44.6299609375 -4.38818359375 44.08259765625 -4.36962890625L43.015703125 -1.92041015625Q42.87654296875 -1.5771484375 42.718828125 -1.1689453125Q42.56111328125 -0.7607421875 42.56111328125 -0.34326171875Q42.56111328125 -0.22265625 42.57966796875 -0.143798828125Q42.59822265625 -0.06494140625 42.61677734375 -0.037109375V0.0H40.72419921875V-0.037109375Q40.89119140625 -0.21337890625 41.1416796875 -0.663330078125Q41.39216796875 -1.11328125 41.68904296875 -1.79052734375L47.0049609375 -13.58203125H47.7471484375L52.78474609375 -2.2451171875Q52.961015625 -1.84619140625 53.151201171875 -1.470458984375Q53.34138671875 -1.0947265625 53.50837890625 -0.7978515625Q53.67537109375 -0.5009765625 53.80525390625 -0.296875Q53.93513671875 -0.0927734375 53.9815234375 -0.037109375V0.0ZM45.4278125 -5.18603515625Q45.9658984375 -5.18603515625 46.53181640625 -5.190673828125Q47.097734375 -5.1953125 47.640458984375 -5.199951171875Q48.18318359375 -5.20458984375 48.68416015625 -5.209228515625Q49.18513671875 -5.2138671875 49.59333984375 -5.22314453125L46.98640625 -11.1142578125L44.425859375 -5.18603515625Z M63.54015625000001 -0.81640625Q64.63488281250001 -0.81640625 65.55333984375001 -0.9091796875Q66.47179687500001 -1.001953125 67.15832031250001 -1.12255859375Q67.95617187500001 -1.25244140625 68.61486328125001 -1.4287109375L68.34582031250001 0.07421875Q68.23449218750001 0.06494140625 68.01183593750001 0.0556640625Q67.78917968750001 0.04638671875 67.51549804687501 0.037109375Q67.24181640625001 0.02783203125 66.94030273437501 0.023193359375Q66.63878906250001 0.0185546875 66.36974609375001 0.013916015625Q66.10070312500001 0.00927734375 65.89196289062501 0.004638671875Q65.68322265625001 0.0 65.59044921875001 0.0H61.58263671875001V-0.037109375Q61.63830078125001 -0.23193359375 61.68932617187501 -0.51953125Q61.74035156250001 -0.80712890625 61.77746093750001 -1.23388671875Q61.81457031250001 -1.66064453125 61.83312500000001 -2.249755859375Q61.85167968750001 -2.8388671875 61.85167968750001 -3.62744140625V-9.6669921875Q61.85167968750001 -10.45556640625 61.83312500000001 -11.044677734375Q61.81457031250001 -11.6337890625 61.77746093750001 -12.065185546875Q61.74035156250001 -12.49658203125 61.68932617187501 -12.7841796875Q61.63830078125001 -13.07177734375 61.58263671875001 -13.2666015625V-13.3037109375H63.80919921875001V-13.2666015625Q63.75353515625001 -13.07177734375 63.70250976562501 -12.7841796875Q63.65148437500001 -12.49658203125 63.61901367187501 -12.065185546875Q63.58654296875001 -11.6337890625 63.56334960937501 -11.044677734375Q63.54015625000001 -10.45556640625 63.54015625000001 -9.6669921875Z M78.7394140625 -0.81640625Q79.834140625 -0.81640625 80.75259765625 -0.9091796875Q81.6710546875 -1.001953125 82.357578125 -1.12255859375Q83.1554296875 -1.25244140625 83.81412109375 -1.4287109375L83.545078125 0.07421875Q83.43375 0.06494140625 83.21109375 0.0556640625Q82.9884375 0.04638671875 82.714755859375 0.037109375Q82.44107421875 0.02783203125 82.139560546875 0.023193359375Q81.838046875 0.0185546875 81.56900390625 0.013916015625Q81.2999609375 0.00927734375 81.091220703125 0.004638671875Q80.88248046875 0.0 80.78970703125 0.0H76.78189453125V-0.037109375Q76.83755859375 -0.23193359375 76.888583984375 -0.51953125Q76.939609375 -0.80712890625 76.97671875 -1.23388671875Q77.013828125 -1.66064453125 77.0323828125 -2.249755859375Q77.0509375 -2.8388671875 77.0509375 -3.62744140625V-9.6669921875Q77.0509375 -10.45556640625 77.0323828125 -11.044677734375Q77.013828125 -11.6337890625 76.97671875 -12.065185546875Q76.939609375 -12.49658203125 76.888583984375 -12.7841796875Q76.83755859375 -13.07177734375 76.78189453125 -13.2666015625V-13.3037109375H79.00845703125V-13.2666015625Q78.95279296875 -13.07177734375 78.901767578125 -12.7841796875Q78.8507421875 -12.49658203125 78.818271484375 -12.065185546875Q78.78580078125 -11.6337890625 78.762607421875 -11.044677734375Q78.7394140625 -10.45556640625 78.7394140625 -9.6669921875Z M91.415234375 -4.23974609375V-5.56640625H97.68671875V-4.23974609375Z M106.5031640625 -9.6669921875Q106.5031640625 -10.45556640625 106.484609375 -11.044677734375Q106.4660546875 -11.6337890625 106.4289453125 -12.065185546875Q106.3918359375 -12.49658203125 106.340810546875 -12.7841796875Q106.28978515625 -13.07177734375 106.23412109375 -13.2666015625V-13.3037109375Q106.41966796875 -13.29443359375 106.62376953125 -13.29443359375Q106.8000390625 -13.28515625 107.018056640625 -13.28515625Q107.23607421875 -13.28515625 107.4680078125 -13.28515625Q107.8019921875 -13.28515625 108.372548828125 -13.35009765625Q108.94310546875 -13.4150390625 109.8430078125 -13.4150390625Q110.67796875 -13.4150390625 111.383046875 -13.197021484375Q112.088125 -12.97900390625 112.603017578125 -12.57080078125Q113.11791015625 -12.16259765625 113.410146484375 -11.564208984375Q113.7023828125 -10.9658203125 113.7023828125 -10.205078125Q113.7023828125 -9.56494140625 113.52611328125 -9.059326171875Q113.34984375 -8.5537109375 113.029775390625 -8.177978515625Q112.70970703125 -7.80224609375 112.259755859375 -7.547119140625Q111.8098046875 -7.2919921875 111.27171875 -7.1435546875Q112.06029296875 -7.02294921875 112.70970703125 -6.739990234375Q113.35912109375 -6.45703125 113.827626953125 -6.0302734375Q114.2961328125 -5.603515625 114.551259765625 -5.032958984375Q114.80638671875 -4.46240234375 114.80638671875 -3.7666015625Q114.80638671875 -1.80908203125 113.5168359375 -0.830322265625Q112.22728515625 0.1484375 109.6574609375 0.1484375Q109.379140625 0.1484375 109.008046875 0.125244140625Q108.636953125 0.10205078125 108.251943359375 0.07421875Q107.86693359375 0.04638671875 107.49583984375 0.023193359375Q107.12474609375 0.0 106.84642578125 0.0H106.23412109375V-0.037109375Q106.28978515625 -0.23193359375 106.340810546875 -0.51953125Q106.3918359375 -0.80712890625 106.4289453125 -1.23388671875Q106.4660546875 -1.66064453125 106.484609375 -2.249755859375Q106.5031640625 -2.8388671875 106.5031640625 -3.62744140625ZM109.90794921875 -6.57763671875Q109.27708984375 -6.57763671875 108.85033203125 -6.53125Q108.42357421875 -6.48486328125 108.191640625 -6.4384765625V-3.62744140625Q108.191640625 -2.5419921875 108.22875 -1.8369140625Q108.265859375 -1.1318359375 108.33080078125 -0.6865234375Q108.68333984375 -0.64013671875 109.03587890625 -0.60302734375Q109.38841796875 -0.56591796875 109.601796875 -0.56591796875Q111.33666015625 -0.56591796875 112.139150390625 -1.340576171875Q112.941640625 -2.115234375 112.941640625 -3.72021484375Q112.941640625 -4.35107421875 112.751455078125 -4.875244140625Q112.56126953125 -5.3994140625 112.185537109375 -5.77978515625Q111.8098046875 -6.16015625 111.239248046875 -6.368896484375Q110.66869140625 -6.57763671875 109.90794921875 -6.57763671875ZM108.191640625 -7.2734375Q108.45140625 -7.24560546875 108.6555078125 -7.240966796875Q108.859609375 -7.236328125 109.09154296875 -7.236328125Q109.72240234375 -7.236328125 110.24193359375 -7.417236328125Q110.76146484375 -7.59814453125 111.127919921875 -7.9599609375Q111.494375 -8.32177734375 111.6984765625 -8.864501953125Q111.902578125 -9.4072265625 111.902578125 -10.130859375Q111.902578125 -10.73388671875 111.754140625 -11.2255859375Q111.605703125 -11.71728515625 111.313466796875 -12.065185546875Q111.02123046875 -12.4130859375 110.59447265625 -12.5986328125Q110.16771484375 -12.7841796875 109.6203515625 -12.7841796875Q109.2678125 -12.7841796875 109.003408203125 -12.75634765625Q108.73900390625 -12.728515625 108.55345703125 -12.69140625Q108.340078125 -12.654296875 108.191640625 -12.5986328125Z M132.5569140625 0.0V-0.037109375Q132.57546875 -0.08349609375 132.58474609375 -0.17626953125Q132.5940234375 -0.26904296875 132.5940234375 -0.34326171875Q132.5940234375 -0.630859375 132.515166015625 -0.978759765625Q132.43630859375 -1.32666015625 132.21365234375 -1.84619140625L131.09109375 -4.36962890625Q130.5715625 -4.38818359375 129.70876953125 -4.38818359375Q128.8459765625 -4.38818359375 127.8440234375 -4.38818359375Q127.11111328125 -4.38818359375 126.429228515625 -4.38818359375Q125.74734375 -4.38818359375 125.19998046875 -4.36962890625L124.1330859375 -1.92041015625Q123.99392578125 -1.5771484375 123.8362109375 -1.1689453125Q123.67849609375 -0.7607421875 123.67849609375 -0.34326171875Q123.67849609375 -0.22265625 123.69705078125 -0.143798828125Q123.71560546875 -0.06494140625 123.73416015625 -0.037109375V0.0H121.84158203125V-0.037109375Q122.00857421875 -0.21337890625 122.2590625 -0.663330078125Q122.50955078125 -1.11328125 122.80642578125 -1.79052734375L128.12234375 -13.58203125H128.86453125L133.90212890625 -2.2451171875Q134.0783984375 -1.84619140625 134.268583984375 -1.470458984375Q134.45876953125 -1.0947265625 134.62576171875 -0.7978515625Q134.79275390625 -0.5009765625 134.92263671875 -0.296875Q135.05251953125 -0.0927734375 135.09890625 -0.037109375V0.0ZM126.5451953125 -5.18603515625Q127.08328125 -5.18603515625 127.64919921875 -5.190673828125Q128.2151171875 -5.1953125 128.757841796875 -5.199951171875Q129.30056640625 -5.20458984375 129.80154296875 -5.209228515625Q130.30251953125 -5.2138671875 130.71072265625 -5.22314453125L128.1037890625 -11.1142578125L125.5432421875 -5.18603515625Z M145.2512890625 -12.4873046875Q144.1565625 -12.4873046875 143.27521484375 -12.389892578125Q142.3938671875 -12.29248046875 141.75373046875 -12.18115234375Q141.01154296875 -12.0419921875 140.4270703125 -11.875L140.69611328125 -13.3779296875Q140.80744140625 -13.36865234375 141.03009765625 -13.359375Q141.25275390625 -13.35009765625 141.526435546875 -13.3408203125Q141.8001171875 -13.33154296875 142.101630859375 -13.326904296875Q142.40314453125 -13.322265625 142.6721875 -13.317626953125Q142.94123046875 -13.31298828125 143.149970703125 -13.308349609375Q143.3587109375 -13.3037109375 143.451484375 -13.3037109375H148.74884765625Q148.84162109375 -13.3037109375 149.050361328125 -13.308349609375Q149.2591015625 -13.31298828125 149.52814453125 -13.317626953125Q149.7971875 -13.322265625 150.098701171875 -13.326904296875Q150.40021484375 -13.33154296875 150.673896484375 -13.3408203125Q150.947578125 -13.35009765625 151.170234375 -13.359375Q151.392890625 -13.36865234375 151.50421875 -13.3779296875L151.77326171875 -11.875Q151.17951171875 -12.0419921875 150.43732421875 -12.18115234375Q149.7971875 -12.29248046875 148.91583984375 -12.389892578125Q148.0344921875 -12.4873046875 146.939765625 -12.4873046875V-3.62744140625Q146.939765625 -2.8388671875 146.962958984375 -2.249755859375Q146.98615234375 -1.66064453125 147.018623046875 -1.23388671875Q147.05109375 -0.80712890625 147.102119140625 -0.51953125Q147.15314453125 -0.23193359375 147.20880859375 -0.037109375V0.0H144.9915234375V-0.037109375Q145.0471875 -0.23193359375 145.09357421875 -0.51953125Q145.1399609375 -0.80712890625 145.1770703125 -1.23388671875Q145.2141796875 -1.66064453125 145.232734375 -2.249755859375Q145.2512890625 -2.8388671875 145.2512890625 -3.62744140625Z M170.32164062500001 -11.2626953125 170.23814453125001 -11.2255859375Q169.51451171875001 -11.8935546875 168.49864257812501 -12.29248046875Q167.48277343750001 -12.69140625 166.26744140625001 -12.69140625Q165.09849609375001 -12.69140625 164.12437500000001 -12.324951171875Q163.15025390625001 -11.95849609375 162.44981445312501 -11.2626953125Q161.74937500000001 -10.56689453125 161.35972656250001 -9.5556640625Q160.97007812500001 -8.54443359375 160.97007812500001 -7.2548828125Q160.97007812500001 -5.83544921875 161.34117187500001 -4.606201171875Q161.71226562500001 -3.376953125 162.44517578125001 -2.47705078125Q163.17808593750001 -1.5771484375 164.27745117187501 -1.062255859375Q165.37681640625001 -0.54736328125 166.84263671875001 -0.54736328125Q167.37144531250001 -0.54736328125 167.90025390625001 -0.65869140625Q168.42906250000001 -0.77001953125 168.91612304687501 -0.988037109375Q169.40318359375001 -1.2060546875 169.83458007812501 -1.516845703125Q170.26597656250001 -1.82763671875 170.61851562500001 -2.2265625L170.72056640625001 -2.16162109375L169.97837890625001 -0.26904296875Q169.28257812500001 0.0 168.44297851562501 0.143798828125Q167.60337890625001 0.28759765625 166.74986328125001 0.28759765625Q165.03355468750001 0.28759765625 163.60948242187501 -0.208740234375Q162.18541015625001 -0.705078125 161.16026367187501 -1.6142578125Q160.13511718750001 -2.5234375 159.56456054687501 -3.799072265625Q158.99400390625001 -5.07470703125 158.99400390625001 -6.63330078125Q158.99400390625001 -7.5146484375 159.22129882812501 -8.3681640625Q159.44859375000001 -9.2216796875 159.88462890625001 -9.99169921875Q160.32066406250001 -10.76171875 160.96080078125001 -11.406494140625Q161.60093750000001 -12.05126953125 162.42198242187501 -12.5244140625Q163.24302734375001 -12.99755859375 164.23106445312501 -13.261962890625Q165.21910156250001 -13.5263671875 166.36949218750001 -13.5263671875Q168.16001953125001 -13.5263671875 169.69078125000001 -12.97900390625Z M188.0814453125 -6.3642578125Q187.7103515625 -6.37353515625 187.1537109375 -6.378173828125Q186.5970703125 -6.3828125 185.943017578125 -6.39208984375Q185.28896484375 -6.4013671875 184.579248046875 -6.406005859375Q183.86953125 -6.41064453125 183.19228515625 -6.415283203125Q182.5150390625 -6.419921875 181.902734375 -6.41064453125Q181.2904296875 -6.4013671875 180.83583984375 -6.3828125V-3.62744140625Q180.83583984375 -2.8388671875 180.859033203125 -2.249755859375Q180.8822265625 -1.66064453125 180.914697265625 -1.23388671875Q180.94716796875 -0.80712890625 180.998193359375 -0.51953125Q181.04921875 -0.23193359375 181.1048828125 -0.037109375V0.0H178.8783203125V-0.037109375Q178.933984375 -0.23193359375 178.985009765625 -0.51953125Q179.03603515625 -0.80712890625 179.07314453125 -1.23388671875Q179.11025390625 -1.66064453125 179.12880859375 -2.249755859375Q179.14736328125 -2.8388671875 179.14736328125 -3.62744140625V-9.6669921875Q179.14736328125 -10.45556640625 179.12880859375 -11.044677734375Q179.11025390625 -11.6337890625 179.07314453125 -12.065185546875Q179.03603515625 -12.49658203125 178.985009765625 -12.7841796875Q178.933984375 -13.07177734375 178.8783203125 -13.2666015625V-13.3037109375H181.1048828125V-13.2666015625Q181.04921875 -13.07177734375 180.998193359375 -12.7841796875Q180.94716796875 -12.49658203125 180.914697265625 -12.065185546875Q180.8822265625 -11.6337890625 180.859033203125 -11.044677734375Q180.83583984375 -10.45556640625 180.83583984375 -9.6669921875V-7.2919921875Q181.31826171875 -7.2734375 181.93056640625 -7.268798828125Q182.54287109375 -7.26416015625 183.21083984375 -7.268798828125Q183.87880859375 -7.2734375 184.569970703125 -7.28271484375Q185.2611328125 -7.2919921875 185.905908203125 -7.305908203125Q186.55068359375 -7.31982421875 187.111962890625 -7.33837890625Q187.6732421875 -7.35693359375 188.0814453125 -7.37548828125V-9.6669921875Q188.0814453125 -10.45556640625 188.058251953125 -11.044677734375Q188.03505859375 -11.6337890625 188.002587890625 -12.065185546875Q187.9701171875 -12.49658203125 187.919091796875 -12.7841796875Q187.86806640625 -13.07177734375 187.81240234375 -13.2666015625V-13.3037109375H190.03896484375V-13.2666015625Q189.98330078125 -13.07177734375 189.932275390625 -12.7841796875Q189.88125 -12.49658203125 189.844140625 -12.065185546875Q189.80703125 -11.6337890625 189.7884765625 -11.044677734375Q189.769921875 -10.45556640625 189.769921875 -9.6669921875V-3.62744140625Q189.769921875 -2.8388671875 189.7884765625 -2.249755859375Q189.80703125 -1.66064453125 189.844140625 -1.23388671875Q189.88125 -0.80712890625 189.932275390625 -0.51953125Q189.98330078125 -0.23193359375 190.03896484375 -0.037109375V0.0H187.81240234375V-0.037109375Q187.86806640625 -0.23193359375 187.919091796875 -0.51953125Q187.9701171875 -0.80712890625 188.002587890625 -1.23388671875Q188.03505859375 -1.66064453125 188.058251953125 -2.249755859375Q188.0814453125 -2.8388671875 188.0814453125 -3.62744140625Z M211.5776171875 -9.6669921875Q211.5776171875 -10.45556640625 211.5590625 -11.044677734375Q211.5405078125 -11.6337890625 211.5033984375 -12.065185546875Q211.4662890625 -12.49658203125 211.415263671875 -12.7841796875Q211.36423828125 -13.07177734375 211.30857421875 -13.2666015625V-13.3037109375Q211.49412109375 -13.29443359375 211.69822265625 -13.29443359375Q211.8744921875 -13.28515625 212.092509765625 -13.28515625Q212.31052734375 -13.28515625 212.5424609375 -13.28515625Q212.8764453125 -13.28515625 213.447001953125 -13.35009765625Q214.01755859375 -13.4150390625 214.9174609375 -13.4150390625Q215.752421875 -13.4150390625 216.4575 -13.197021484375Q217.162578125 -12.97900390625 217.677470703125 -12.57080078125Q218.19236328125 -12.16259765625 218.484599609375 -11.564208984375Q218.7768359375 -10.9658203125 218.7768359375 -10.205078125Q218.7768359375 -9.56494140625 218.60056640625 -9.059326171875Q218.424296875 -8.5537109375 218.104228515625 -8.177978515625Q217.78416015625 -7.80224609375 217.334208984375 -7.547119140625Q216.8842578125 -7.2919921875 216.346171875 -7.1435546875Q217.13474609375 -7.02294921875 217.78416015625 -6.739990234375Q218.43357421875 -6.45703125 218.902080078125 -6.0302734375Q219.3705859375 -5.603515625 219.625712890625 -5.032958984375Q219.88083984375 -4.46240234375 219.88083984375 -3.7666015625Q219.88083984375 -1.80908203125 218.5912890625 -0.830322265625Q217.30173828125 0.1484375 214.7319140625 0.1484375Q214.45359375 0.1484375 214.0825 0.125244140625Q213.71140625 0.10205078125 213.326396484375 0.07421875Q212.94138671875 0.04638671875 212.57029296875 0.023193359375Q212.19919921875 0.0 211.92087890625 0.0H211.30857421875V-0.037109375Q211.36423828125 -0.23193359375 211.415263671875 -0.51953125Q211.4662890625 -0.80712890625 211.5033984375 -1.23388671875Q211.5405078125 -1.66064453125 211.5590625 -2.249755859375Q211.5776171875 -2.8388671875 211.5776171875 -3.62744140625ZM214.98240234375 -6.57763671875Q214.35154296875 -6.57763671875 213.92478515625 -6.53125Q213.49802734375 -6.48486328125 213.26609375 -6.4384765625V-3.62744140625Q213.26609375 -2.5419921875 213.303203125 -1.8369140625Q213.3403125 -1.1318359375 213.40525390625 -0.6865234375Q213.75779296875 -0.64013671875 214.11033203125 -0.60302734375Q214.46287109375 -0.56591796875 214.67625 -0.56591796875Q216.41111328125 -0.56591796875 217.213603515625 -1.340576171875Q218.01609375 -2.115234375 218.01609375 -3.72021484375Q218.01609375 -4.35107421875 217.825908203125 -4.875244140625Q217.63572265625 -5.3994140625 217.259990234375 -5.77978515625Q216.8842578125 -6.16015625 216.313701171875 -6.368896484375Q215.74314453125 -6.57763671875 214.98240234375 -6.57763671875ZM213.26609375 -7.2734375Q213.525859375 -7.24560546875 213.7299609375 -7.240966796875Q213.9340625 -7.236328125 214.16599609375 -7.236328125Q214.79685546875 -7.236328125 215.31638671875 -7.417236328125Q215.83591796875 -7.59814453125 216.202373046875 -7.9599609375Q216.568828125 -8.32177734375 216.7729296875 -8.864501953125Q216.97703125 -9.4072265625 216.97703125 -10.130859375Q216.97703125 -10.73388671875 216.82859375 -11.2255859375Q216.68015625 -11.71728515625 216.387919921875 -12.065185546875Q216.09568359375 -12.4130859375 215.66892578125 -12.5986328125Q215.24216796875 -12.7841796875 214.6948046875 -12.7841796875Q214.342265625 -12.7841796875 214.077861328125 -12.75634765625Q213.81345703125 -12.728515625 213.62791015625 -12.69140625Q213.41453125 -12.654296875 213.26609375 -12.5986328125Z M237.6313671875 0.0V-0.037109375Q237.649921875 -0.08349609375 237.65919921875 -0.17626953125Q237.6684765625 -0.26904296875 237.6684765625 -0.34326171875Q237.6684765625 -0.630859375 237.589619140625 -0.978759765625Q237.51076171875 -1.32666015625 237.28810546875 -1.84619140625L236.165546875 -4.36962890625Q235.646015625 -4.38818359375 234.78322265625 -4.38818359375Q233.9204296875 -4.38818359375 232.9184765625 -4.38818359375Q232.18556640625 -4.38818359375 231.503681640625 -4.38818359375Q230.821796875 -4.38818359375 230.27443359375 -4.36962890625L229.2075390625 -1.92041015625Q229.06837890625 -1.5771484375 228.9106640625 -1.1689453125Q228.75294921875 -0.7607421875 228.75294921875 -0.34326171875Q228.75294921875 -0.22265625 228.77150390625 -0.143798828125Q228.79005859375 -0.06494140625 228.80861328125 -0.037109375V0.0H226.91603515625V-0.037109375Q227.08302734375 -0.21337890625 227.333515625 -0.663330078125Q227.58400390625 -1.11328125 227.88087890625 -1.79052734375L233.196796875 -13.58203125H233.938984375L238.97658203125 -2.2451171875Q239.1528515625 -1.84619140625 239.343037109375 -1.470458984375Q239.53322265625 -1.0947265625 239.70021484375 -0.7978515625Q239.86720703125 -0.5009765625 239.99708984375 -0.296875Q240.12697265625 -0.0927734375 240.173359375 -0.037109375V0.0ZM231.6196484375 -5.18603515625Q232.157734375 -5.18603515625 232.72365234375 -5.190673828125Q233.2895703125 -5.1953125 233.832294921875 -5.199951171875Q234.37501953125 -5.20458984375 234.87599609375 -5.209228515625Q235.37697265625 -5.2138671875 235.78517578125 -5.22314453125L233.1782421875 -11.1142578125L230.6176953125 -5.18603515625Z M247.77447265625 -0.037109375Q247.83013671875 -0.23193359375 247.881162109375 -0.51953125Q247.9321875 -0.80712890625 247.969296875 -1.23388671875Q248.00640625 -1.66064453125 248.0249609375 -2.249755859375Q248.043515625 -2.8388671875 248.043515625 -3.62744140625V-9.6669921875Q248.043515625 -10.45556640625 248.0249609375 -11.044677734375Q248.00640625 -11.6337890625 247.969296875 -12.065185546875Q247.9321875 -12.49658203125 247.881162109375 -12.7841796875Q247.83013671875 -13.07177734375 247.77447265625 -13.2666015625V-13.3037109375H250.00103515625V-13.2666015625Q249.94537109375 -13.07177734375 249.894345703125 -12.7841796875Q249.8433203125 -12.49658203125 249.810849609375 -12.065185546875Q249.77837890625 -11.6337890625 249.755185546875 -11.044677734375Q249.7319921875 -10.45556640625 249.7319921875 -9.6669921875V-7.59814453125L255.1499609375 -12.0234375Q256.059140625 -12.765625 256.059140625 -13.3037109375H258.66607421875V-13.2666015625Q258.1187109375 -13.13671875 257.557431640625 -12.770263671875Q256.99615234375 -12.40380859375 256.36529296875 -11.875L251.57818359375 -7.8671875L257.3394140625 -1.5400390625Q257.70123046875 -1.1689453125 257.956357421875 -0.923095703125Q258.211484375 -0.67724609375 258.40630859375 -0.514892578125Q258.6011328125 -0.3525390625 258.763486328125 -0.245849609375Q258.92583984375 -0.13916015625 259.102109375 -0.037109375V0.0H256.38384765625Q256.34673828125 -0.08349609375 256.258603515625 -0.21337890625Q256.17046875 -0.34326171875 256.054501953125 -0.482421875Q255.93853515625 -0.62158203125 255.804013671875 -0.77001953125Q255.6694921875 -0.91845703125 255.54888671875 -1.04833984375L249.7319921875 -7.43115234375V-3.62744140625Q249.7319921875 -2.8388671875 249.755185546875 -2.249755859375Q249.77837890625 -1.66064453125 249.810849609375 -1.23388671875Q249.8433203125 -0.80712890625 249.894345703125 -0.51953125Q249.94537109375 -0.23193359375 250.00103515625 -0.037109375V0.0H247.77447265625Z M266.5083984375 -13.3037109375Q267.66806640625 -13.3037109375 268.813818359375 -13.31298828125Q269.9595703125 -13.322265625 270.91513671875 -13.336181640625Q271.870703125 -13.35009765625 272.54794921875 -13.3779296875Q273.2251953125 -13.40576171875 273.46640625 -13.4521484375L273.01181640625 -12.21826171875Q272.7056640625 -12.3017578125 272.2974609375 -12.36669921875Q271.944921875 -12.42236328125 271.439306640625 -12.473388671875Q270.93369140625 -12.5244140625 270.275 -12.5244140625Q270.05234375 -12.5244140625 269.741552734375 -12.510498046875Q269.43076171875 -12.49658203125 269.1431640625 -12.47802734375Q268.8091796875 -12.45947265625 268.46591796875 -12.44091796875V-7.37548828125Q269.421484375 -7.384765625 270.19150390625 -7.43115234375Q270.9615234375 -7.4775390625 271.499609375 -7.52392578125Q272.13046875 -7.57958984375 272.612890625 -7.65380859375L272.32529296875 -6.30859375Q271.68515625 -6.39208984375 271.0171875 -6.46630859375Q270.4419921875 -6.53125 269.76474609375 -6.582275390625Q269.0875 -6.63330078125 268.46591796875 -6.63330078125V-0.81640625Q269.56064453125 -0.81640625 270.4791015625 -0.9091796875Q271.39755859375 -1.001953125 272.08408203125 -1.12255859375Q272.88193359375 -1.25244140625 273.540625 -1.4287109375L273.27158203125 0.07421875Q273.16025390625 0.06494140625 272.93759765625 0.0556640625Q272.71494140625 0.04638671875 272.441259765625 0.037109375Q272.167578125 0.02783203125 271.866064453125 0.023193359375Q271.56455078125 0.0185546875 271.2955078125 0.013916015625Q271.02646484375 0.00927734375 270.817724609375 0.004638671875Q270.608984375 0.0 270.5162109375 0.0H266.5083984375V-0.037109375Q266.5640625 -0.23193359375 266.615087890625 -0.51953125Q266.66611328125 -0.80712890625 266.70322265625 -1.23388671875Q266.74033203125 -1.66064453125 266.75888671875 -2.249755859375Q266.77744140625 -2.8388671875 266.77744140625 -3.62744140625V-9.6669921875Q266.77744140625 -10.45556640625 266.75888671875 -11.044677734375Q266.74033203125 -11.6337890625 266.70322265625 -12.065185546875Q266.66611328125 -12.49658203125 266.615087890625 -12.7841796875Q266.5640625 -13.07177734375 266.5083984375 -13.2666015625V-13.3037109375Z M284.24037109375 -3.62744140625Q284.24037109375 -2.8388671875 284.263564453125 -2.249755859375Q284.2867578125 -1.66064453125 284.319228515625 -1.23388671875Q284.35169921875 -0.80712890625 284.402724609375 -0.51953125Q284.45375 -0.23193359375 284.5094140625 -0.037109375V0.0H282.2828515625V-0.037109375Q282.338515625 -0.23193359375 282.389541015625 -0.51953125Q282.44056640625 -0.80712890625 282.473037109375 -1.23388671875Q282.5055078125 -1.66064453125 282.528701171875 -2.2451171875Q282.55189453125 -2.82958984375 282.55189453125 -3.62744140625V-9.6669921875Q282.55189453125 -10.45556640625 282.528701171875 -11.044677734375Q282.5055078125 -11.6337890625 282.473037109375 -12.060546875Q282.44056640625 -12.4873046875 282.389541015625 -12.779541015625Q282.338515625 -13.07177734375 282.2828515625 -13.2666015625V-13.3037109375L282.6725 -13.2666015625Q282.84876953125 -13.248046875 283.066787109375 -13.243408203125Q283.2848046875 -13.23876953125 283.51673828125 -13.23876953125Q283.8785546875 -13.23876953125 284.495498046875 -13.326904296875Q285.11244140625 -13.4150390625 286.0680078125 -13.4150390625Q286.9586328125 -13.4150390625 287.714736328125 -13.173828125Q288.47083984375 -12.9326171875 289.02748046875 -12.46875Q289.58412109375 -12.0048828125 289.894912109375 -11.332275390625Q290.205703125 -10.65966796875 290.205703125 -9.80615234375Q290.205703125 -9.13818359375 290.034072265625 -8.567626953125Q289.86244140625 -7.9970703125 289.551650390625 -7.533203125Q289.240859375 -7.0693359375 288.80482421875 -6.712158203125Q288.3687890625 -6.35498046875 287.830703125 -6.11376953125L291.08705078125 -1.5400390625Q291.32826171875 -1.19677734375 291.537001953125 -0.9462890625Q291.7457421875 -0.69580078125 291.935927734375 -0.514892578125Q292.12611328125 -0.333984375 292.3023828125 -0.218017578125Q292.47865234375 -0.10205078125 292.66419921875 -0.037109375V0.0H289.983046875Q289.95521484375 -0.17626953125 289.802138671875 -0.468505859375Q289.6490625 -0.7607421875 289.4449609375 -1.04833984375L286.16078125 -5.677734375Q285.94740234375 -5.6591796875 285.7340234375 -5.645263671875Q285.52064453125 -5.63134765625 285.29798828125 -5.63134765625Q285.03822265625 -5.63134765625 284.773818359375 -5.64990234375Q284.5094140625 -5.66845703125 284.24037109375 -5.71484375ZM284.24037109375 -6.4384765625Q284.490859375 -6.3828125 284.750625 -6.359619140625Q285.010390625 -6.33642578125 285.2516015625 -6.33642578125Q285.94740234375 -6.33642578125 286.52259765625 -6.545166015625Q287.09779296875 -6.75390625 287.501357421875 -7.1806640625Q287.904921875 -7.607421875 288.127578125 -8.242919921875Q288.350234375 -8.87841796875 288.350234375 -9.73193359375Q288.350234375 -10.427734375 288.19251953125 -10.99365234375Q288.0348046875 -11.5595703125 287.724013671875 -11.953857421875Q287.41322265625 -12.34814453125 286.940078125 -12.566162109375Q286.46693359375 -12.7841796875 285.83607421875 -12.7841796875Q285.1959375 -12.7841796875 284.81556640625 -12.71923828125Q284.4351953125 -12.654296875 284.24037109375 -12.580078125Z M305.00603515625 -6.3828125V-3.62744140625Q305.00603515625 -2.8388671875 305.02458984375 -2.249755859375Q305.04314453125 -1.66064453125 305.08025390625 -1.23388671875Q305.11736328125 -0.80712890625 305.168388671875 -0.51953125Q305.2194140625 -0.23193359375 305.275078125 -0.037109375V0.0H303.048515625V-0.037109375Q303.1041796875 -0.23193359375 303.155205078125 -0.51953125Q303.20623046875 -0.80712890625 303.238701171875 -1.23388671875Q303.271171875 -1.66064453125 303.294365234375 -2.249755859375Q303.31755859375 -2.8388671875 303.31755859375 -3.62744140625V-6.197265625L299.1705859375 -11.837890625Q298.95720703125 -12.12548828125 298.748466796875 -12.36669921875Q298.5397265625 -12.60791015625 298.3541796875 -12.788818359375Q298.1686328125 -12.9697265625 298.0201953125 -13.09033203125Q297.8717578125 -13.2109375 297.78826171875 -13.2666015625V-13.3037109375H300.599296875Q300.599296875 -13.09033203125 300.780205078125 -12.603271484375Q300.96111328125 -12.1162109375 301.4342578125 -11.45751953125L304.4772265625 -7.2919921875L307.45525390625 -11.64306640625Q307.61296875 -11.875 307.77068359375 -12.1162109375Q307.9283984375 -12.357421875 308.05828125 -12.580078125Q308.1881640625 -12.802734375 308.267021484375 -12.98828125Q308.34587890625 -13.173828125 308.34587890625 -13.3037109375H310.1549609375V-13.2666015625Q309.950859375 -13.09033203125 309.60759765625 -12.742431640625Q309.2643359375 -12.39453125 308.86541015625 -11.8193359375Z" fill="#B9AA9C" /></g><line x1="217.73890625" y1="412" x2="257.73890625" y2="412" stroke="#E39262" stroke-width="1.3"/><line x1="642.26109375" y1="412" x2="682.26109375" y2="412" stroke="#E39262" stroke-width="1.3"/></svg>