<svg xmlns="http://www.w3.org/2000/svg" viewBox="0 0 1180 320" width="1180" height="320"><g transform="translate(40,65.0) scale(1.9)"><path d="M19,83 C19,80.4 23,80.4 27,80.4 L73,80.4 C77,80.4 81,80.4 81,83" fill="none" stroke="#241A15" stroke-width="3.2" stroke-linecap="round"/><path d="M26,80.4 L26,56" fill="none" stroke="#241A15" stroke-width="3.2" stroke-linecap="round"/><path d="M74,80.4 L74,56" fill="none" stroke="#241A15" stroke-width="3.2" stroke-linecap="round"/><path d="M26,56 Q32.7,62.4 39.3,56 Q46,62.4 52.7,56 Q59.3,62.4 66,56 Q70.6,60.7 74,56" fill="none" stroke="#241A15" stroke-width="2.7" stroke-linecap="round" stroke-linejoin="round"/><path d="M38,56 L38,42" fill="none" stroke="#241A15" stroke-width="3.2" stroke-linecap="round"/><path d="M62,56 L62,42" fill="none" stroke="#241A15" stroke-width="3.2" stroke-linecap="round"/><path d="M38,42 Q44.5,48 51,42 Q57.5,48 62,42" fill="none" stroke="#241A15" stroke-width="2.7" stroke-linecap="round" stroke-linejoin="round"/><path d="M50,42 L50,31.5" fill="none" stroke="#241A15" stroke-width="3.2" stroke-linecap="round"/><path d="M50,30.5 C46.2,26.8 47.4,22 50,18.6 C52.6,22 53.8,26.8 50,30.5 Z" fill="#241A15"/></g><line x1="258" y1="90.0" x2="258" y2="230.0" stroke="#E7DECF" stroke-width="1.4"/><g transform="translate(286.000,166.000) scale(1.0000)"><path d="M15.834 0.0V-1.638L23.01 -2.808V-60.45H10.14L4.212 -45.006H1.95V-62.4H52.728V-45.006H50.388L44.538 -60.45H31.59V-2.808L38.766 -1.638V0.0Z M56.861999999999995 -1.56 62.321999999999996 -2.34V-60.06L56.861999999999995 -60.84V-62.4H70.122V-31.98Q73.008 -36.192 76.90799999999999 -38.649Q80.80799999999999 -41.106 85.332 -41.106Q90.948 -41.106 94.185 -38.298Q97.422 -35.49 97.422 -29.951999999999998V-2.34L102.882 -1.56V0.0H84.942V-1.56L89.622 -2.34V-29.796Q89.622 -33.852 87.98400000000001 -36.075Q86.346 -38.298 82.914 -38.298Q79.326 -38.298 76.011 -35.685Q72.696 -33.072 70.122 -29.25V-2.34L74.80199999999999 -1.56V0.0H56.861999999999995Z M108.264 -20.202Q108.264 -26.442 110.955 -31.161Q113.646 -35.88 118.209 -38.493Q122.77199999999999 -41.106 128.388 -41.106Q133.302 -41.106 137.202 -38.922Q141.102 -36.738 143.286 -32.876999999999995Q145.47 -29.016 145.548 -24.024H116.844V-16.302Q116.844 -9.438 119.925 -5.187Q123.006 -0.9359999999999999 128.856 -0.9359999999999999Q134.238 -0.9359999999999999 138.372 -3.9779999999999998Q142.506 -7.02 143.442 -11.856H145.236Q144.144 -6.084 139.698 -2.6519999999999997Q135.252 0.78 128.856 0.78Q123.084 0.78 118.404 -1.8329999999999997Q113.72399999999999 -4.446 110.994 -9.204Q108.264 -13.962 108.264 -20.202ZM136.968 -25.974Q136.968 -32.76 134.862 -36.075Q132.756 -39.39 128.31 -39.39Q123.084 -39.39 120.19800000000001 -35.724000000000004Q117.312 -32.058 116.922 -25.974Z M184.392 0.0V-1.638L191.56799999999998 -2.808V-60.45H178.69799999999998L172.76999999999998 -45.006H170.50799999999998V-62.4H221.286V-45.006H218.946L213.096 -60.45H200.148V-2.808L207.32399999999998 -1.638V0.0Z M221.91 -9.594Q221.91 -16.926 228.072 -20.006999999999998Q234.234 -23.088 242.346 -23.088H247.572V-29.094Q247.572 -33.15 246.675 -35.373Q245.778 -37.596 243.906 -38.492999999999995Q242.034 -39.39 238.836 -39.39Q235.17000000000002 -39.39 233.376 -37.947Q231.582 -36.504 231.582 -34.086Q231.582 -31.824 233.766 -31.122Q233.766 -29.172 232.284 -27.689999999999998Q230.802 -26.208 228.774 -26.208Q226.59 -26.208 225.264 -27.417Q223.938 -28.626 223.938 -31.122Q223.938 -35.646 228.462 -38.376000000000005Q232.986 -41.106 239.772 -41.106Q255.372 -41.106 255.372 -27.534V-5.226Q255.372 -3.51 256.113 -2.613Q256.854 -1.716 258.258 -1.716Q259.584 -1.716 260.36400000000003 -2.613Q261.144 -3.51 261.144 -5.07H262.782Q262.782 -2.34 261.027 -0.7799999999999999Q259.272 0.78 256.152 0.78Q252.564 0.78 250.107 -1.287Q247.65 -3.354 247.572 -7.722Q245.7 -3.7439999999999998 241.839 -1.4819999999999998Q237.978 0.78 233.298 0.78Q228.306 0.78 225.108 -1.8329999999999997Q221.91 -4.446 221.91 -9.594ZM247.572 -13.26V-21.372H242.346Q235.95 -21.372 232.791 -18.525Q229.632 -15.678 229.632 -10.53Q229.632 -6.24 231.66 -4.446Q233.688 -2.652 237.588 -2.652Q239.69400000000002 -2.652 241.91700000000003 -3.9Q244.14000000000001 -5.148 245.7 -7.527Q247.26 -9.906 247.572 -13.26Z M266.91600000000005 -9.048Q266.91600000000005 -11.31 268.125 -12.597000000000001Q269.334 -13.884 271.362 -13.884Q272.922 -13.884 274.014 -13.104Q275.10600000000005 -12.324 275.574 -10.92Q273.858 -9.048 273.858 -6.942Q273.858 -4.524 276.04200000000003 -2.73Q278.226 -0.9359999999999999 281.89200000000005 -0.9359999999999999Q286.80600000000004 -0.9359999999999999 289.92600000000004 -3.159Q293.04600000000005 -5.382 293.04600000000005 -9.126Q293.04600000000005 -11.31 291.72 -12.402000000000001Q290.394 -13.494 286.572 -14.898L274.79400000000004 -19.188Q267.85200000000003 -21.684 267.85200000000003 -28.47Q267.85200000000003 -34.008 271.67400000000004 -37.557Q275.49600000000004 -41.106 282.204 -41.106Q287.742 -41.106 291.68100000000004 -38.571Q295.62 -36.036 295.62 -31.356Q295.62 -29.483999999999998 294.606 -28.353Q293.59200000000004 -27.222 291.954 -27.222Q290.31600000000003 -27.222 289.26300000000003 -28.119Q288.21000000000004 -29.016 288.21000000000004 -30.576Q289.22400000000005 -31.356 289.61400000000003 -32.253Q290.004 -33.15 290.004 -34.398Q290.004 -36.582 288.093 -37.986000000000004Q286.182 -39.39 282.204 -39.39Q278.77200000000005 -39.39 276.31500000000005 -38.337Q273.858 -37.284 272.61 -35.568Q271.362 -33.852 271.362 -32.058Q271.362 -30.186 272.72700000000003 -29.094Q274.09200000000004 -28.002 277.75800000000004 -26.676L288.678 -22.776Q292.5 -21.372 294.45000000000005 -18.875999999999998Q296.40000000000003 -16.38 296.40000000000003 -12.402Q296.40000000000003 -6.708 292.812 -2.964Q289.22400000000005 0.78 281.89200000000005 0.78Q275.49600000000004 0.78 271.206 -1.9499999999999997Q266.91600000000005 -4.68 266.91600000000005 -9.048Z M307.866 -9.984V-38.064L302.328 -38.844V-40.404H307.866V-46.878L315.666 -48.828V-40.404H325.806V-38.844L315.666 -38.064V-10.14Q315.666 -1.8719999999999999 321.594 -1.8719999999999999Q322.842 -1.8719999999999999 323.97299999999996 -2.262Q325.104 -2.652 325.76699999999994 -3.042Q326.42999999999995 -3.432 326.58599999999996 -3.588L327.59999999999997 -2.34Q324.09 0.78 319.176 0.78Q314.02799999999996 0.78 310.947 -1.794Q307.866 -4.368 307.866 -9.984Z M329.628 -20.202Q329.628 -26.442 332.31899999999996 -31.161Q335.01 -35.88 339.573 -38.493Q344.136 -41.106 349.752 -41.106Q354.666 -41.106 358.56600000000003 -38.922Q362.466 -36.738 364.65 -32.876999999999995Q366.834 -29.016 366.912 -24.024H338.208V-16.302Q338.208 -9.438 341.289 -5.187Q344.37 -0.9359999999999999 350.22 -0.9359999999999999Q355.602 -0.9359999999999999 359.736 -3.9779999999999998Q363.87 -7.02 364.806 -11.856H366.6Q365.508 -6.084 361.062 -2.6519999999999997Q356.616 0.78 350.22 0.78Q344.448 0.78 339.76800000000003 -1.8329999999999997Q335.088 -4.446 332.358 -9.204Q329.628 -13.962 329.628 -20.202ZM358.332 -25.974Q358.332 -32.76 356.226 -36.075Q354.12 -39.39 349.674 -39.39Q344.448 -39.39 341.562 -35.724000000000004Q338.676 -32.058 338.286 -25.974Z M425.49 0.78 402.24600000000004 -59.592V-4.758L409.73400000000004 -1.638V0.0H393.04200000000003V-1.638L400.374 -4.758V-59.592L393.19800000000004 -60.684V-62.4H410.43600000000004L430.014 -12.324L449.982 -62.4H465.73800000000006V-60.684L458.562 -59.592V-2.808L465.73800000000006 -1.638V0.0H442.80600000000004V-1.638L449.982 -2.808V-57.252L426.894 0.78Z M473.07000000000005 -9.594Q473.07000000000005 -16.926 479.232 -20.006999999999998Q485.394 -23.088 493.50600000000003 -23.088H498.732V-29.094Q498.732 -33.15 497.83500000000004 -35.373Q496.93800000000005 -37.596 495.06600000000003 -38.492999999999995Q493.194 -39.39 489.99600000000004 -39.39Q486.33000000000004 -39.39 484.53600000000006 -37.947Q482.742 -36.504 482.742 -34.086Q482.742 -31.824 484.92600000000004 -31.122Q484.92600000000004 -29.172 483.4440000000001 -27.689999999999998Q481.96200000000005 -26.208 479.934 -26.208Q477.75 -26.208 476.424 -27.417Q475.098 -28.626 475.098 -31.122Q475.098 -35.646 479.622 -38.376000000000005Q484.146 -41.106 490.932 -41.106Q506.53200000000004 -41.106 506.53200000000004 -27.534V-5.226Q506.53200000000004 -3.51 507.273 -2.613Q508.014 -1.716 509.418 -1.716Q510.744 -1.716 511.52400000000006 -2.613Q512.3040000000001 -3.51 512.3040000000001 -5.07H513.942Q513.942 -2.34 512.187 -0.7799999999999999Q510.432 0.78 507.312 0.78Q503.72400000000005 0.78 501.26700000000005 -1.287Q498.81 -3.354 498.732 -7.722Q496.86 -3.7439999999999998 492.999 -1.4819999999999998Q489.13800000000003 0.78 484.458 0.78Q479.466 0.78 476.26800000000003 -1.8329999999999997Q473.07000000000005 -4.446 473.07000000000005 -9.594ZM498.732 -13.26V-21.372H493.50600000000003Q487.11 -21.372 483.951 -18.525Q480.79200000000003 -15.678 480.79200000000003 -10.53Q480.79200000000003 -6.24 482.82000000000005 -4.446Q484.848 -2.652 488.74800000000005 -2.652Q490.85400000000004 -2.652 493.077 -3.9Q495.3 -5.148 496.86 -7.527Q498.42 -9.906 498.732 -13.26Z M515.8919999999999 0.0V-1.56L521.352 -2.34V-60.06L515.8919999999999 -60.84V-62.4H529.152V-22.386L547.014 -37.05L540.228 -38.844V-40.404H554.892V-38.844L549.9 -37.05L536.952 -26.442L555.204 -2.262L559.4159999999999 -1.56V0.0H541.164V-1.56L545.844 -2.34L531.18 -21.684L529.152 -19.968V-2.34L533.832 -1.56V0.0Z M560.0400000000001 -20.202Q560.0400000000001 -26.442 562.731 -31.161Q565.422 -35.88 569.985 -38.493Q574.548 -41.106 580.164 -41.106Q585.0780000000001 -41.106 588.9780000000001 -38.922Q592.878 -36.738 595.0620000000001 -32.876999999999995Q597.2460000000001 -29.016 597.3240000000001 -24.024H568.62V-16.302Q568.62 -9.438 571.701 -5.187Q574.782 -0.9359999999999999 580.6320000000001 -0.9359999999999999Q586.014 -0.9359999999999999 590.148 -3.9779999999999998Q594.282 -7.02 595.2180000000001 -11.856H597.0120000000001Q595.9200000000001 -6.084 591.474 -2.6519999999999997Q587.028 0.78 580.6320000000001 0.78Q574.86 0.78 570.1800000000001 -1.8329999999999997Q565.5 -4.446 562.77 -9.204Q560.0400000000001 -13.962 560.0400000000001 -20.202ZM588.744 -25.974Q588.744 -32.76 586.638 -36.075Q584.532 -39.39 580.086 -39.39Q574.86 -39.39 571.974 -35.724000000000004Q569.0880000000001 -32.058 568.6980000000001 -25.974Z M603.174 -1.56 608.634 -2.34V-38.064L603.174 -38.844V-40.404H616.434V-34.398Q621.348 -41.106 627.51 -41.106Q630.4739999999999 -41.106 632.7359999999999 -39.585Q634.9979999999999 -38.064 634.9979999999999 -35.256Q634.9979999999999 -33.228 633.672 -31.863Q632.346 -30.498 630.162 -30.498Q627.6659999999999 -30.498 626.106 -32.448Q626.9639999999999 -33.54 626.9639999999999 -34.788Q626.9639999999999 -36.114 626.067 -36.933Q625.17 -37.752 623.688 -37.752Q622.05 -37.752 620.334 -36.231Q618.6179999999999 -34.71 616.434 -31.512V-2.34L622.674 -1.56V0.0H603.174Z M638.274 -1.56 643.734 -2.34V-38.064L638.274 -38.844V-40.404H651.534V-34.398Q656.448 -41.106 662.61 -41.106Q665.574 -41.106 667.836 -39.585Q670.098 -38.064 670.098 -35.256Q670.098 -33.228 668.7719999999999 -31.863Q667.446 -30.498 665.2620000000001 -30.498Q662.766 -30.498 661.206 -32.448Q662.064 -33.54 662.064 -34.788Q662.064 -36.114 661.1669999999999 -36.933Q660.27 -37.752 658.788 -37.752Q657.15 -37.752 655.434 -36.231Q653.718 -34.71 651.534 -31.512V-2.34L657.774 -1.56V0.0H638.274Z M675.0120000000001 -9.048Q675.0120000000001 -11.31 676.221 -12.597000000000001Q677.4300000000001 -13.884 679.4580000000001 -13.884Q681.018 -13.884 682.11 -13.104Q683.202 -12.324 683.6700000000001 -10.92Q681.9540000000001 -9.048 681.9540000000001 -6.942Q681.9540000000001 -4.524 684.138 -2.73Q686.322 -0.9359999999999999 689.988 -0.9359999999999999Q694.902 -0.9359999999999999 698.022 -3.159Q701.142 -5.382 701.142 -9.126Q701.142 -11.31 699.816 -12.402000000000001Q698.49 -13.494 694.668 -14.898L682.89 -19.188Q675.948 -21.684 675.948 -28.47Q675.948 -34.008 679.77 -37.557Q683.592 -41.106 690.3000000000001 -41.106Q695.8380000000001 -41.106 699.777 -38.571Q703.716 -36.036 703.716 -31.356Q703.716 -29.483999999999998 702.702 -28.353Q701.688 -27.222 700.0500000000001 -27.222Q698.412 -27.222 697.359 -28.119Q696.306 -29.016 696.306 -30.576Q697.32 -31.356 697.71 -32.253Q698.1 -33.15 698.1 -34.398Q698.1 -36.582 696.1890000000001 -37.986000000000004Q694.278 -39.39 690.3000000000001 -39.39Q686.868 -39.39 684.4110000000001 -38.337Q681.9540000000001 -37.284 680.7060000000001 -35.568Q679.4580000000001 -33.852 679.4580000000001 -32.058Q679.4580000000001 -30.186 680.8230000000001 -29.094Q682.188 -28.002 685.854 -26.676L696.774 -22.776Q700.596 -21.372 702.546 -18.875999999999998Q704.496 -16.38 704.496 -12.402Q704.496 -6.708 700.908 -2.964Q697.32 0.78 689.988 0.78Q683.592 0.78 679.302 -1.9499999999999997Q675.0120000000001 -4.68 675.0120000000001 -9.048Z" fill="#241A15" /></g><circle cx="999.70" cy="165.41" r="3.90" fill="#241A15"/><g transform="translate(288.000,200.000) scale(1.0000)"><path d="M2.5927734375 -4.65087890625Q3.310546875 -4.51904296875 3.907470703125 -4.625244140625Q4.50439453125 -4.7314453125 4.932861328125 -5.079345703125Q5.361328125 -5.42724609375 5.599365234375 -6.0205078125Q5.83740234375 -6.61376953125 5.83740234375 -7.470703125Q5.83740234375 -8.06396484375 5.712890625 -8.551025390625Q5.58837890625 -9.0380859375 5.343017578125 -9.378662109375Q5.09765625 -9.71923828125 4.72412109375 -9.906005859375Q4.3505859375 -10.0927734375 3.8525390625 -10.0927734375Q3.53759765625 -10.0927734375 3.30322265625 -10.067138671875Q3.06884765625 -10.04150390625 2.90771484375 -10.01220703125Q2.71728515625 -9.9755859375 2.5927734375 -9.931640625ZM1.04736328125 -10.5029296875Q1.19384765625 -10.48828125 1.35498046875 -10.4736328125Q1.494140625 -10.458984375 1.666259765625 -10.455322265625Q1.83837890625 -10.45166015625 2.021484375 -10.45166015625Q2.30712890625 -10.45166015625 2.794189453125 -10.521240234375Q3.28125 -10.5908203125 4.03564453125 -10.5908203125Q4.73876953125 -10.5908203125 5.335693359375 -10.3857421875Q5.9326171875 -10.1806640625 6.3720703125 -9.78515625Q6.8115234375 -9.3896484375 7.056884765625 -8.822021484375Q7.30224609375 -8.25439453125 7.30224609375 -7.529296875Q7.30224609375 -6.55517578125 6.9140625 -5.8447265625Q6.52587890625 -5.13427734375 5.8740234375 -4.69482421875Q5.22216796875 -4.25537109375 4.37255859375 -4.097900390625Q3.52294921875 -3.9404296875 2.5927734375 -4.07958984375V-2.86376953125Q2.5927734375 -2.2412109375 2.611083984375 -1.776123046875Q2.62939453125 -1.31103515625 2.655029296875 -0.97412109375Q2.6806640625 -0.63720703125 2.720947265625 -0.41015625Q2.76123046875 -0.18310546875 2.80517578125 -0.029296875V0.0H1.04736328125V-0.029296875Q1.09130859375 -0.18310546875 1.131591796875 -0.41015625Q1.171875 -0.63720703125 1.201171875 -0.97412109375Q1.23046875 -1.31103515625 1.2451171875 -1.776123046875Q1.259765625 -2.2412109375 1.259765625 -2.86376953125V-7.6318359375Q1.259765625 -8.25439453125 1.2451171875 -8.719482421875Q1.23046875 -9.1845703125 1.201171875 -9.525146484375Q1.171875 -9.86572265625 1.131591796875 -10.0927734375Q1.09130859375 -10.31982421875 1.04736328125 -10.4736328125Z M14.77587890625 -2.86376953125Q14.77587890625 -2.2412109375 14.794189453125 -1.776123046875Q14.8125 -1.31103515625 14.838134765625 -0.97412109375Q14.86376953125 -0.63720703125 14.904052734375 -0.41015625Q14.9443359375 -0.18310546875 14.98828125 -0.029296875V0.0H13.23046875V-0.029296875Q13.2744140625 -0.18310546875 13.314697265625 -0.41015625Q13.35498046875 -0.63720703125 13.380615234375 -0.97412109375Q13.40625 -1.31103515625 13.424560546875 -1.7724609375Q13.44287109375 -2.23388671875 13.44287109375 -2.86376953125V-7.6318359375Q13.44287109375 -8.25439453125 13.424560546875 -8.719482421875Q13.40625 -9.1845703125 13.380615234375 -9.521484375Q13.35498046875 -9.8583984375 13.314697265625 -10.089111328125Q13.2744140625 -10.31982421875 13.23046875 -10.4736328125V-10.5029296875L13.5380859375 -10.4736328125Q13.67724609375 -10.458984375 13.849365234375 -10.455322265625Q14.021484375 -10.45166015625 14.20458984375 -10.45166015625Q14.490234375 -10.45166015625 14.977294921875 -10.521240234375Q15.46435546875 -10.5908203125 16.21875 -10.5908203125Q16.921875 -10.5908203125 17.518798828125 -10.400390625Q18.11572265625 -10.2099609375 18.55517578125 -9.84375Q18.99462890625 -9.4775390625 19.239990234375 -8.946533203125Q19.4853515625 -8.41552734375 19.4853515625 -7.74169921875Q19.4853515625 -7.21435546875 19.349853515625 -6.763916015625Q19.21435546875 -6.3134765625 18.968994140625 -5.947265625Q18.7236328125 -5.5810546875 18.37939453125 -5.299072265625Q18.03515625 -5.01708984375 17.6103515625 -4.82666015625L20.18115234375 -1.2158203125Q20.37158203125 -0.94482421875 20.536376953125 -0.7470703125Q20.701171875 -0.54931640625 20.851318359375 -0.406494140625Q21.00146484375 -0.263671875 21.140625 -0.172119140625Q21.27978515625 -0.08056640625 21.42626953125 -0.029296875V0.0H19.3095703125Q19.28759765625 -0.13916015625 19.166748046875 -0.369873046875Q19.0458984375 -0.6005859375 18.884765625 -0.82763671875L16.2919921875 -4.482421875Q16.12353515625 -4.4677734375 15.955078125 -4.456787109375Q15.78662109375 -4.44580078125 15.61083984375 -4.44580078125Q15.40576171875 -4.44580078125 15.197021484375 -4.46044921875Q14.98828125 -4.47509765625 14.77587890625 -4.51171875ZM14.77587890625 -5.0830078125Q14.9736328125 -5.0390625 15.1787109375 -5.020751953125Q15.3837890625 -5.00244140625 15.57421875 -5.00244140625Q16.12353515625 -5.00244140625 16.57763671875 -5.167236328125Q17.03173828125 -5.33203125 17.350341796875 -5.6689453125Q17.6689453125 -6.005859375 17.8447265625 -6.507568359375Q18.0205078125 -7.00927734375 18.0205078125 -7.68310546875Q18.0205078125 -8.232421875 17.89599609375 -8.67919921875Q17.771484375 -9.1259765625 17.526123046875 -9.437255859375Q17.28076171875 -9.74853515625 16.9072265625 -9.920654296875Q16.53369140625 -10.0927734375 16.03564453125 -10.0927734375Q15.5302734375 -10.0927734375 15.22998046875 -10.04150390625Q14.9296875 -9.990234375 14.77587890625 -9.931640625Z M26.5927734375 -10.5029296875Q27.50830078125 -10.5029296875 28.412841796875 -10.51025390625Q29.3173828125 -10.517578125 30.07177734375 -10.528564453125Q30.826171875 -10.53955078125 31.36083984375 -10.5615234375Q31.8955078125 -10.58349609375 32.0859375 -10.6201171875L31.72705078125 -9.64599609375Q31.4853515625 -9.7119140625 31.1630859375 -9.76318359375Q30.884765625 -9.80712890625 30.485595703125 -9.847412109375Q30.08642578125 -9.8876953125 29.56640625 -9.8876953125Q29.390625 -9.8876953125 29.145263671875 -9.876708984375Q28.89990234375 -9.86572265625 28.6728515625 -9.85107421875Q28.4091796875 -9.83642578125 28.13818359375 -9.82177734375V-5.82275390625Q28.892578125 -5.830078125 29.50048828125 -5.86669921875Q30.1083984375 -5.9033203125 30.533203125 -5.93994140625Q31.03125 -5.98388671875 31.412109375 -6.04248046875L31.18505859375 -4.98046875Q30.6796875 -5.04638671875 30.15234375 -5.10498046875Q29.6982421875 -5.15625 29.16357421875 -5.196533203125Q28.62890625 -5.23681640625 28.13818359375 -5.23681640625V-0.64453125Q29.00244140625 -0.64453125 29.7275390625 -0.7177734375Q30.45263671875 -0.791015625 30.99462890625 -0.88623046875Q31.62451171875 -0.98876953125 32.14453125 -1.1279296875L31.93212890625 0.05859375Q31.84423828125 0.05126953125 31.66845703125 0.0439453125Q31.49267578125 0.03662109375 31.276611328125 0.029296875Q31.060546875 0.02197265625 30.822509765625 0.018310546875Q30.58447265625 0.0146484375 30.3720703125 0.010986328125Q30.15966796875 0.00732421875 29.994873046875 0.003662109375Q29.830078125 0.0 29.7568359375 0.0H26.5927734375V-0.029296875Q26.63671875 -0.18310546875 26.677001953125 -0.41015625Q26.71728515625 -0.63720703125 26.74658203125 -0.97412109375Q26.77587890625 -1.31103515625 26.79052734375 -1.776123046875Q26.80517578125 -2.2412109375 26.80517578125 -2.86376953125V-7.6318359375Q26.80517578125 -8.25439453125 26.79052734375 -8.719482421875Q26.77587890625 -9.1845703125 26.74658203125 -9.525146484375Q26.71728515625 -9.86572265625 26.677001953125 -10.0927734375Q26.63671875 -10.31982421875 26.5927734375 -10.4736328125V-10.5029296875Z M37.92626953125001 -0.029296875Q38.00683593750001 -0.146484375 38.10937500000001 -0.377197265625Q38.21191406250001 -0.60791015625 38.27050781250001 -0.95947265625Q38.35107421875001 -1.47216796875 38.44995117187501 -2.113037109375Q38.54882812500001 -2.75390625 38.65502929687501 -3.45703125Q38.76123046875001 -4.16015625 38.86743164062501 -4.896240234375Q38.97363281250001 -5.63232421875 39.07250976562501 -6.346435546875Q39.17138671875001 -7.060546875 39.26293945312501 -7.723388671875Q39.35449218750001 -8.38623046875 39.42773437500001 -8.935546875Q39.50097656250001 -9.48486328125 39.54858398437501 -9.891357421875Q39.59619140625001 -10.2978515625 39.61816406250001 -10.5029296875H40.54833984375001L45.15527343750001 -1.8896484375L49.72558593750001 -10.5029296875H50.42138671875001L51.62255859375001 -1.8017578125Q51.67382812500001 -1.3916015625 51.73242187500001 -1.0986328125Q51.79101562500001 -0.8056640625 51.84960937500001 -0.596923828125Q51.90820312500001 -0.38818359375 51.96313476562501 -0.252685546875Q52.01806640625001 -0.1171875 52.06933593750001 -0.029296875V0.0H50.22363281250001V-0.029296875Q50.26025390625001 -0.10986328125 50.29321289062501 -0.29296875Q50.32617187500001 -0.47607421875 50.32617187500001 -0.732421875Q50.32617187500001 -0.82763671875 50.31884765625001 -0.926513671875Q50.31152343750001 -1.025390625 50.29687500000001 -1.142578125L49.36669921875001 -8.1591796875L45.04541015625001 -0.029296875L44.54003906250001 -0.087890625L40.18945312500001 -8.232421875Q39.93310546875001 -6.49658203125 39.74267578125001 -5.0244140625Q39.66210937500001 -4.39453125 39.58154296875001 -3.768310546875Q39.50097656250001 -3.14208984375 39.43872070312501 -2.60009765625Q39.37646484375001 -2.05810546875 39.33984375000001 -1.644287109375Q39.30322265625001 -1.23046875 39.30322265625001 -1.03271484375Q39.30322265625001 -0.78369140625 39.31787109375001 -0.59326171875Q39.33251953125001 -0.40283203125 39.34716796875001 -0.27099609375Q39.36914062500001 -0.1171875 39.39111328125001 0.0H37.92626953125001Z M58.283203125 -0.029296875Q58.3271484375 -0.18310546875 58.36376953125 -0.41015625Q58.400390625 -0.63720703125 58.4296875 -0.97412109375Q58.458984375 -1.31103515625 58.4736328125 -1.776123046875Q58.48828125 -2.2412109375 58.48828125 -2.86376953125V-7.6318359375Q58.48828125 -8.25439453125 58.4736328125 -8.719482421875Q58.458984375 -9.1845703125 58.4296875 -9.525146484375Q58.400390625 -9.86572265625 58.36376953125 -10.0927734375Q58.3271484375 -10.31982421875 58.283203125 -10.4736328125V-10.5029296875H60.03369140625V-10.4736328125Q59.98974609375 -10.31982421875 59.949462890625 -10.0927734375Q59.9091796875 -9.86572265625 59.883544921875 -9.525146484375Q59.85791015625 -9.1845703125 59.839599609375 -8.719482421875Q59.8212890625 -8.25439453125 59.8212890625 -7.6318359375V-2.86376953125Q59.8212890625 -2.2412109375 59.839599609375 -1.776123046875Q59.85791015625 -1.31103515625 59.883544921875 -0.97412109375Q59.9091796875 -0.63720703125 59.949462890625 -0.41015625Q59.98974609375 -0.18310546875 60.03369140625 -0.029296875V0.0H58.283203125Z M74.208984375 -7.6318359375Q74.208984375 -8.25439453125 74.1943359375 -8.719482421875Q74.1796875 -9.1845703125 74.150390625 -9.525146484375Q74.12109375 -9.86572265625 74.08447265625 -10.0927734375Q74.0478515625 -10.31982421875 74.00390625 -10.4736328125V-10.5029296875H75.3076171875V-10.4736328125Q75.263671875 -10.31982421875 75.223388671875 -10.0927734375Q75.18310546875 -9.86572265625 75.157470703125 -9.525146484375Q75.1318359375 -9.1845703125 75.113525390625 -8.719482421875Q75.09521484375 -8.25439453125 75.09521484375 -7.6318359375V-3.6767578125Q75.09521484375 -2.62939453125 74.794921875 -1.8896484375Q74.49462890625 -1.14990234375 73.9599609375 -0.677490234375Q73.42529296875 -0.205078125 72.67822265625 0.010986328125Q71.93115234375 0.22705078125 71.044921875 0.22705078125Q70.15869140625 0.22705078125 69.393310546875 0.02197265625Q68.6279296875 -0.18310546875 68.060302734375 -0.640869140625Q67.49267578125 -1.0986328125 67.17041015625 -1.827392578125Q66.84814453125 -2.55615234375 66.84814453125 -3.603515625V-7.6318359375Q66.84814453125 -8.25439453125 66.83349609375 -8.719482421875Q66.81884765625 -9.1845703125 66.78955078125 -9.525146484375Q66.76025390625 -9.86572265625 66.719970703125 -10.0927734375Q66.6796875 -10.31982421875 66.6357421875 -10.4736328125V-10.5029296875H68.3935546875V-10.4736328125Q68.349609375 -10.31982421875 68.309326171875 -10.0927734375Q68.26904296875 -9.86572265625 68.23974609375 -9.525146484375Q68.21044921875 -9.1845703125 68.19580078125 -8.719482421875Q68.18115234375 -8.25439453125 68.18115234375 -7.6318359375V-3.52294921875Q68.18115234375 -2.6513671875 68.441162109375 -2.083740234375Q68.701171875 -1.51611328125 69.1259765625 -1.182861328125Q69.55078125 -0.849609375 70.0927734375 -0.7177734375Q70.634765625 -0.5859375 71.19873046875 -0.5859375Q71.7626953125 -0.5859375 72.3046875 -0.7177734375Q72.8466796875 -0.849609375 73.267822265625 -1.182861328125Q73.68896484375 -1.51611328125 73.948974609375 -2.083740234375Q74.208984375 -2.6513671875 74.208984375 -3.52294921875Z M81.32373046875 -0.029296875Q81.404296875 -0.146484375 81.5068359375 -0.377197265625Q81.609375 -0.60791015625 81.66796875 -0.95947265625Q81.74853515625 -1.47216796875 81.847412109375 -2.113037109375Q81.9462890625 -2.75390625 82.052490234375 -3.45703125Q82.15869140625 -4.16015625 82.264892578125 -4.896240234375Q82.37109375 -5.63232421875 82.469970703125 -6.346435546875Q82.56884765625 -7.060546875 82.660400390625 -7.723388671875Q82.751953125 -8.38623046875 82.8251953125 -8.935546875Q82.8984375 -9.48486328125 82.946044921875 -9.891357421875Q82.99365234375 -10.2978515625 83.015625 -10.5029296875H83.94580078125L88.552734375 -1.8896484375L93.123046875 -10.5029296875H93.81884765625L95.02001953125 -1.8017578125Q95.0712890625 -1.3916015625 95.1298828125 -1.0986328125Q95.1884765625 -0.8056640625 95.2470703125 -0.596923828125Q95.3056640625 -0.38818359375 95.360595703125 -0.252685546875Q95.41552734375 -0.1171875 95.466796875 -0.029296875V0.0H93.62109375V-0.029296875Q93.65771484375 -0.10986328125 93.690673828125 -0.29296875Q93.7236328125 -0.47607421875 93.7236328125 -0.732421875Q93.7236328125 -0.82763671875 93.71630859375 -0.926513671875Q93.708984375 -1.025390625 93.6943359375 -1.142578125L92.76416015625 -8.1591796875L88.44287109375 -0.029296875L87.9375 -0.087890625L83.5869140625 -8.232421875Q83.33056640625 -6.49658203125 83.14013671875 -5.0244140625Q83.0595703125 -4.39453125 82.97900390625 -3.768310546875Q82.8984375 -3.14208984375 82.836181640625 -2.60009765625Q82.77392578125 -2.05810546875 82.7373046875 -1.644287109375Q82.70068359375 -1.23046875 82.70068359375 -1.03271484375Q82.70068359375 -0.78369140625 82.71533203125 -0.59326171875Q82.72998046875 -0.40283203125 82.74462890625 -0.27099609375Q82.7666015625 -0.1171875 82.78857421875 0.0H81.32373046875Z M110.82421874999999 -7.6318359375Q110.82421874999999 -8.25439453125 110.80957031249999 -8.719482421875Q110.79492187499999 -9.1845703125 110.76562499999999 -9.525146484375Q110.73632812499999 -9.86572265625 110.69604492187499 -10.0927734375Q110.65576171874999 -10.31982421875 110.61181640624999 -10.4736328125V-10.5029296875Q110.75830078124999 -10.49560546875 110.91943359374999 -10.49560546875Q111.05859374999999 -10.48828125 111.23071289062499 -10.48828125Q111.40283203124999 -10.48828125 111.58593749999999 -10.48828125Q111.84960937499999 -10.48828125 112.30004882812499 -10.53955078125Q112.75048828124999 -10.5908203125 113.46093749999999 -10.5908203125Q114.12011718749999 -10.5908203125 114.67675781249999 -10.418701171875Q115.23339843749999 -10.24658203125 115.63989257812499 -9.92431640625Q116.04638671874999 -9.60205078125 116.27709960937499 -9.129638671875Q116.50781249999999 -8.6572265625 116.50781249999999 -8.056640625Q116.50781249999999 -7.55126953125 116.36865234374999 -7.152099609375Q116.22949218749999 -6.7529296875 115.97680664062499 -6.456298828125Q115.72412109374999 -6.15966796875 115.36889648437499 -5.958251953125Q115.01367187499999 -5.7568359375 114.58886718749999 -5.6396484375Q115.21142578124999 -5.54443359375 115.72412109374999 -5.321044921875Q116.23681640624999 -5.09765625 116.60668945312499 -4.7607421875Q116.97656249999999 -4.423828125 117.17797851562499 -3.973388671875Q117.37939453124999 -3.52294921875 117.37939453124999 -2.9736328125Q117.37939453124999 -1.42822265625 116.36132812499999 -0.655517578125Q115.34326171874999 0.1171875 113.31445312499999 0.1171875Q113.09472656249999 0.1171875 112.80175781249999 0.098876953125Q112.50878906249999 0.08056640625 112.20483398437499 0.05859375Q111.90087890624999 0.03662109375 111.60791015624999 0.018310546875Q111.31494140624999 0.0 111.09521484374999 0.0H110.61181640624999V-0.029296875Q110.65576171874999 -0.18310546875 110.69604492187499 -0.41015625Q110.73632812499999 -0.63720703125 110.76562499999999 -0.97412109375Q110.79492187499999 -1.31103515625 110.80957031249999 -1.776123046875Q110.82421874999999 -2.2412109375 110.82421874999999 -2.86376953125ZM113.51220703124999 -5.19287109375Q113.01416015624999 -5.19287109375 112.67724609374999 -5.15625Q112.34033203124999 -5.11962890625 112.15722656249999 -5.0830078125V-2.86376953125Q112.15722656249999 -2.0068359375 112.18652343749999 -1.4501953125Q112.21582031249999 -0.8935546875 112.26708984374999 -0.5419921875Q112.54541015624999 -0.50537109375 112.82373046874999 -0.47607421875Q113.10205078124999 -0.44677734375 113.27050781249999 -0.44677734375Q114.64013671874999 -0.44677734375 115.27368164062499 -1.058349609375Q115.90722656249999 -1.669921875 115.90722656249999 -2.93701171875Q115.90722656249999 -3.43505859375 115.75708007812499 -3.848876953125Q115.60693359374999 -4.2626953125 115.31030273437499 -4.56298828125Q115.01367187499999 -4.86328125 114.56323242187499 -5.028076171875Q114.11279296874999 -5.19287109375 113.51220703124999 -5.19287109375ZM112.15722656249999 -5.7421875Q112.36230468749999 -5.72021484375 112.52343749999999 -5.716552734375Q112.68457031249999 -5.712890625 112.86767578124999 -5.712890625Q113.36572265624999 -5.712890625 113.77587890624999 -5.855712890625Q114.18603515624999 -5.99853515625 114.47534179687499 -6.2841796875Q114.76464843749999 -6.56982421875 114.92578124999999 -6.998291015625Q115.08691406249999 -7.4267578125 115.08691406249999 -7.998046875Q115.08691406249999 -8.47412109375 114.96972656249999 -8.8623046875Q114.85253906249999 -9.25048828125 114.62182617187499 -9.525146484375Q114.39111328124999 -9.7998046875 114.05419921874999 -9.9462890625Q113.71728515624999 -10.0927734375 113.28515624999999 -10.0927734375Q113.00683593749999 -10.0927734375 112.79809570312499 -10.07080078125Q112.58935546874999 -10.048828125 112.44287109374999 -10.01953125Q112.27441406249999 -9.990234375 112.15722656249999 -9.9462890625Z M130.79296875 0.0V-0.029296875Q130.8076171875 -0.06591796875 130.81494140625 -0.13916015625Q130.822265625 -0.21240234375 130.822265625 -0.27099609375Q130.822265625 -0.498046875 130.760009765625 -0.772705078125Q130.69775390625 -1.04736328125 130.52197265625 -1.45751953125L129.6357421875 -3.44970703125Q129.2255859375 -3.46435546875 128.54443359375 -3.46435546875Q127.86328124999999 -3.46435546875 127.07226562499999 -3.46435546875Q126.49365234374999 -3.46435546875 125.95532226562499 -3.46435546875Q125.41699218749999 -3.46435546875 124.98486328124999 -3.44970703125L124.14257812499999 -1.51611328125Q124.03271484374999 -1.2451171875 123.90820312499999 -0.9228515625Q123.78369140624999 -0.6005859375 123.78369140624999 -0.27099609375Q123.78369140624999 -0.17578125 123.79833984374999 -0.113525390625Q123.81298828124999 -0.05126953125 123.82763671874999 -0.029296875V0.0H122.33349609374999V-0.029296875Q122.46533203124999 -0.16845703125 122.66308593749999 -0.523681640625Q122.86083984374999 -0.87890625 123.09521484374999 -1.41357421875L127.29199218749999 -10.72265625H127.87792968749999L131.85498046875 -1.7724609375Q131.994140625 -1.45751953125 132.144287109375 -1.160888671875Q132.29443359375 -0.8642578125 132.42626953125 -0.6298828125Q132.55810546875 -0.3955078125 132.66064453125 -0.234375Q132.76318359375 -0.0732421875 132.7998046875 -0.029296875V0.0ZM126.04687499999999 -4.09423828125Q126.47167968749999 -4.09423828125 126.91845703124999 -4.097900390625Q127.36523437499999 -4.1015625 127.793701171875 -4.105224609375Q128.22216796875 -4.10888671875 128.61767578125 -4.112548828125Q129.01318359375 -4.1162109375 129.33544921875 -4.12353515625L127.27734374999999 -8.7744140625L125.25585937499999 -4.09423828125Z M138.20068359375 -0.029296875Q138.24462890625 -0.18310546875 138.284912109375 -0.41015625Q138.3251953125 -0.63720703125 138.3544921875 -0.97412109375Q138.3837890625 -1.31103515625 138.3984375 -1.776123046875Q138.4130859375 -2.2412109375 138.4130859375 -2.86376953125V-7.6318359375Q138.4130859375 -8.25439453125 138.3984375 -8.719482421875Q138.3837890625 -9.1845703125 138.3544921875 -9.525146484375Q138.3251953125 -9.86572265625 138.284912109375 -10.0927734375Q138.24462890625 -10.31982421875 138.20068359375 -10.4736328125V-10.5029296875H139.95849609375V-10.4736328125Q139.91455078125 -10.31982421875 139.874267578125 -10.0927734375Q139.833984375 -9.86572265625 139.808349609375 -9.525146484375Q139.78271484375 -9.1845703125 139.764404296875 -8.719482421875Q139.74609375 -8.25439453125 139.74609375 -7.6318359375V-5.99853515625L144.0234375 -9.4921875Q144.7412109375 -10.078125 144.7412109375 -10.5029296875H146.79931640625V-10.4736328125Q146.3671875 -10.37109375 145.924072265625 -10.081787109375Q145.48095703125 -9.79248046875 144.98291015625 -9.375L141.20361328125 -6.2109375L145.751953125 -1.2158203125Q146.03759765625 -0.9228515625 146.239013671875 -0.728759765625Q146.4404296875 -0.53466796875 146.59423828125 -0.406494140625Q146.748046875 -0.2783203125 146.876220703125 -0.194091796875Q147.00439453125 -0.10986328125 147.1435546875 -0.029296875V0.0H144.99755859375Q144.96826171875 -0.06591796875 144.898681640625 -0.16845703125Q144.8291015625 -0.27099609375 144.737548828125 -0.380859375Q144.64599609375 -0.49072265625 144.539794921875 -0.60791015625Q144.43359375 -0.72509765625 144.33837890625 -0.82763671875L139.74609375 -5.86669921875V-2.86376953125Q139.74609375 -2.2412109375 139.764404296875 -1.776123046875Q139.78271484375 -1.31103515625 139.808349609375 -0.97412109375Q139.833984375 -0.63720703125 139.874267578125 -0.41015625Q139.91455078125 -0.18310546875 139.95849609375 -0.029296875V0.0H138.20068359375Z M152.390625 -10.5029296875Q153.30615234375 -10.5029296875 154.210693359375 -10.51025390625Q155.115234375 -10.517578125 155.86962890625 -10.528564453125Q156.6240234375 -10.53955078125 157.15869140625 -10.5615234375Q157.693359375 -10.58349609375 157.8837890625 -10.6201171875L157.52490234375 -9.64599609375Q157.283203125 -9.7119140625 156.9609375 -9.76318359375Q156.6826171875 -9.80712890625 156.283447265625 -9.847412109375Q155.88427734375 -9.8876953125 155.3642578125 -9.8876953125Q155.1884765625 -9.8876953125 154.943115234375 -9.876708984375Q154.69775390625 -9.86572265625 154.470703125 -9.85107421875Q154.20703125 -9.83642578125 153.93603515625 -9.82177734375V-5.82275390625Q154.6904296875 -5.830078125 155.29833984375 -5.86669921875Q155.90625 -5.9033203125 156.3310546875 -5.93994140625Q156.8291015625 -5.98388671875 157.2099609375 -6.04248046875L156.98291015625 -4.98046875Q156.4775390625 -5.04638671875 155.9501953125 -5.10498046875Q155.49609375 -5.15625 154.96142578125 -5.196533203125Q154.4267578125 -5.23681640625 153.93603515625 -5.23681640625V-0.64453125Q154.80029296875 -0.64453125 155.525390625 -0.7177734375Q156.25048828125 -0.791015625 156.79248046875 -0.88623046875Q157.42236328125 -0.98876953125 157.9423828125 -1.1279296875L157.72998046875 0.05859375Q157.64208984375 0.05126953125 157.46630859375 0.0439453125Q157.29052734375 0.03662109375 157.074462890625 0.029296875Q156.8583984375 0.02197265625 156.620361328125 0.018310546875Q156.38232421875 0.0146484375 156.169921875 0.010986328125Q155.95751953125 0.00732421875 155.792724609375 0.003662109375Q155.6279296875 0.0 155.5546875 0.0H152.390625V-0.029296875Q152.4345703125 -0.18310546875 152.474853515625 -0.41015625Q152.51513671875 -0.63720703125 152.54443359375 -0.97412109375Q152.57373046875 -1.31103515625 152.58837890625 -1.776123046875Q152.60302734375 -2.2412109375 152.60302734375 -2.86376953125V-7.6318359375Q152.60302734375 -8.25439453125 152.58837890625 -8.719482421875Q152.57373046875 -9.1845703125 152.54443359375 -9.525146484375Q152.51513671875 -9.86572265625 152.474853515625 -10.0927734375Q152.4345703125 -10.31982421875 152.390625 -10.4736328125V-10.5029296875Z M165.78955078125003 -2.86376953125Q165.78955078125003 -2.2412109375 165.80786132812503 -1.776123046875Q165.82617187500003 -1.31103515625 165.85180664062503 -0.97412109375Q165.87744140625003 -0.63720703125 165.91772460937503 -0.41015625Q165.95800781250003 -0.18310546875 166.00195312500003 -0.029296875V0.0H164.24414062500003V-0.029296875Q164.28808593750003 -0.18310546875 164.32836914062503 -0.41015625Q164.36865234375003 -0.63720703125 164.39428710937503 -0.97412109375Q164.41992187500003 -1.31103515625 164.43823242187503 -1.7724609375Q164.45654296875003 -2.23388671875 164.45654296875003 -2.86376953125V-7.6318359375Q164.45654296875003 -8.25439453125 164.43823242187503 -8.719482421875Q164.41992187500003 -9.1845703125 164.39428710937503 -9.521484375Q164.36865234375003 -9.8583984375 164.32836914062503 -10.089111328125Q164.28808593750003 -10.31982421875 164.24414062500003 -10.4736328125V-10.5029296875L164.55175781250003 -10.4736328125Q164.69091796875003 -10.458984375 164.86303710937503 -10.455322265625Q165.03515625000003 -10.45166015625 165.21826171875003 -10.45166015625Q165.50390625000003 -10.45166015625 165.99096679687503 -10.521240234375Q166.47802734375003 -10.5908203125 167.23242187500003 -10.5908203125Q167.93554687500003 -10.5908203125 168.53247070312503 -10.400390625Q169.12939453125003 -10.2099609375 169.56884765625003 -9.84375Q170.00830078125003 -9.4775390625 170.25366210937503 -8.946533203125Q170.49902343750003 -8.41552734375 170.49902343750003 -7.74169921875Q170.49902343750003 -7.21435546875 170.36352539062503 -6.763916015625Q170.22802734375003 -6.3134765625 169.98266601562503 -5.947265625Q169.73730468750003 -5.5810546875 169.39306640625003 -5.299072265625Q169.04882812500003 -5.01708984375 168.62402343750003 -4.82666015625L171.19482421875003 -1.2158203125Q171.38525390625003 -0.94482421875 171.55004882812503 -0.7470703125Q171.71484375000003 -0.54931640625 171.86499023437503 -0.406494140625Q172.01513671875003 -0.263671875 172.15429687500003 -0.172119140625Q172.29345703125003 -0.08056640625 172.43994140625003 -0.029296875V0.0H170.32324218750003Q170.30126953125003 -0.13916015625 170.18041992187503 -0.369873046875Q170.05957031250003 -0.6005859375 169.89843750000003 -0.82763671875L167.30566406250003 -4.482421875Q167.13720703125003 -4.4677734375 166.96875000000003 -4.456787109375Q166.80029296875003 -4.44580078125 166.62451171875003 -4.44580078125Q166.41943359375003 -4.44580078125 166.21069335937503 -4.46044921875Q166.00195312500003 -4.47509765625 165.78955078125003 -4.51171875ZM165.78955078125003 -5.0830078125Q165.98730468750003 -5.0390625 166.19238281250003 -5.020751953125Q166.39746093750003 -5.00244140625 166.58789062500003 -5.00244140625Q167.13720703125003 -5.00244140625 167.59130859375003 -5.167236328125Q168.04541015625003 -5.33203125 168.36401367187503 -5.6689453125Q168.68261718750003 -6.005859375 168.85839843750003 -6.507568359375Q169.03417968750003 -7.00927734375 169.03417968750003 -7.68310546875Q169.03417968750003 -8.232421875 168.90966796875003 -8.67919921875Q168.78515625000003 -9.1259765625 168.53979492187503 -9.437255859375Q168.29443359375003 -9.74853515625 167.92089843750003 -9.920654296875Q167.54736328125003 -10.0927734375 167.04931640625003 -10.0927734375Q166.54394531250003 -10.0927734375 166.24365234375003 -10.04150390625Q165.94335937500003 -9.990234375 165.78955078125003 -9.931640625Z M181.58349609375003 -5.0390625V-2.86376953125Q181.58349609375003 -2.2412109375 181.59814453125003 -1.776123046875Q181.61279296875003 -1.31103515625 181.64208984375003 -0.97412109375Q181.67138671875003 -0.63720703125 181.71166992187503 -0.41015625Q181.75195312500003 -0.18310546875 181.79589843750003 -0.029296875V0.0H180.03808593750003V-0.029296875Q180.08203125000003 -0.18310546875 180.12231445312503 -0.41015625Q180.16259765625003 -0.63720703125 180.18823242187503 -0.97412109375Q180.21386718750003 -1.31103515625 180.23217773437503 -1.776123046875Q180.25048828125003 -2.2412109375 180.25048828125003 -2.86376953125V-4.892578125L176.97656250000003 -9.345703125Q176.80810546875003 -9.57275390625 176.64331054687503 -9.76318359375Q176.47851562500003 -9.95361328125 176.33203125000003 -10.096435546875Q176.18554687500003 -10.2392578125 176.06835937500003 -10.33447265625Q175.95117187500003 -10.4296875 175.88525390625003 -10.4736328125V-10.5029296875H178.10449218750003Q178.10449218750003 -10.33447265625 178.24731445312503 -9.949951171875Q178.39013671875003 -9.5654296875 178.76367187500003 -9.04541015625L181.16601562500003 -5.7568359375L183.51708984375003 -9.19189453125Q183.64160156250003 -9.375 183.76611328125003 -9.5654296875Q183.89062500000003 -9.755859375 183.99316406250003 -9.931640625Q184.09570312500003 -10.107421875 184.15795898437503 -10.25390625Q184.22021484375003 -10.400390625 184.22021484375003 -10.5029296875H185.64843750000003V-10.4736328125Q185.48730468750003 -10.33447265625 185.21630859375003 -10.059814453125Q184.94531250000003 -9.78515625 184.63037109375003 -9.3310546875Z M199.81933593750006 -5.17822265625Q199.81933593750006 -5.33935546875 199.88159179687506 -5.482177734375Q199.94384765625006 -5.625 200.05004882812506 -5.7275390625Q200.15625000000006 -5.830078125 200.29907226562506 -5.892333984375Q200.44189453125006 -5.95458984375 200.60302734375006 -5.95458984375Q200.77148437500006 -5.95458984375 200.91430664062506 -5.892333984375Q201.05712890625006 -5.830078125 201.16333007812506 -5.7275390625Q201.26953125000006 -5.625 201.33178710937506 -5.482177734375Q201.39404296875006 -5.33935546875 201.39404296875006 -5.17822265625Q201.39404296875006 -4.833984375 201.16699218750006 -4.60693359375Q200.93994140625006 -4.3798828125 200.60302734375006 -4.3798828125Q200.44189453125006 -4.3798828125 200.29907226562506 -4.442138671875Q200.15625000000006 -4.50439453125 200.05004882812506 -4.610595703125Q199.94384765625006 -4.716796875 199.88159179687506 -4.86328125Q199.81933593750006 -5.009765625 199.81933593750006 -5.17822265625Z M216.17285156250009 -0.029296875Q216.25341796875009 -0.146484375 216.35595703125009 -0.377197265625Q216.45849609375009 -0.60791015625 216.51708984375009 -0.95947265625Q216.59765625000009 -1.47216796875 216.69653320312509 -2.113037109375Q216.79541015625009 -2.75390625 216.90161132812509 -3.45703125Q217.00781250000009 -4.16015625 217.11401367187509 -4.896240234375Q217.22021484375009 -5.63232421875 217.31909179687509 -6.346435546875Q217.41796875000009 -7.060546875 217.50952148437509 -7.723388671875Q217.60107421875009 -8.38623046875 217.67431640625009 -8.935546875Q217.74755859375009 -9.48486328125 217.79516601562509 -9.891357421875Q217.84277343750009 -10.2978515625 217.86474609375009 -10.5029296875H218.79492187500009L223.40185546875009 -1.8896484375L227.97216796875009 -10.5029296875H228.66796875000009L229.86914062500009 -1.8017578125Q229.92041015625009 -1.3916015625 229.97900390625009 -1.0986328125Q230.03759765625009 -0.8056640625 230.09619140625009 -0.596923828125Q230.15478515625009 -0.38818359375 230.20971679687509 -0.252685546875Q230.26464843750009 -0.1171875 230.31591796875009 -0.029296875V0.0H228.47021484375009V-0.029296875Q228.50683593750009 -0.10986328125 228.53979492187509 -0.29296875Q228.57275390625009 -0.47607421875 228.57275390625009 -0.732421875Q228.57275390625009 -0.82763671875 228.56542968750009 -0.926513671875Q228.55810546875009 -1.025390625 228.54345703125009 -1.142578125L227.61328125000009 -8.1591796875L223.29199218750009 -0.029296875L222.78662109375009 -0.087890625L218.43603515625009 -8.232421875Q218.17968750000009 -6.49658203125 217.98925781250009 -5.0244140625Q217.90869140625009 -4.39453125 217.82812500000009 -3.768310546875Q217.74755859375009 -3.14208984375 217.68530273437509 -2.60009765625Q217.62304687500009 -2.05810546875 217.58642578125009 -1.644287109375Q217.54980468750009 -1.23046875 217.54980468750009 -1.03271484375Q217.54980468750009 -0.78369140625 217.56445312500009 -0.59326171875Q217.57910156250009 -0.40283203125 217.59375000000009 -0.27099609375Q217.61572265625009 -0.1171875 217.63769531250009 0.0H216.17285156250009Z M243.72949218750009 0.0V-0.029296875Q243.74414062500009 -0.06591796875 243.75146484375009 -0.13916015625Q243.75878906250009 -0.21240234375 243.75878906250009 -0.27099609375Q243.75878906250009 -0.498046875 243.69653320312509 -0.772705078125Q243.63427734375009 -1.04736328125 243.45849609375009 -1.45751953125L242.57226562500009 -3.44970703125Q242.16210937500009 -3.46435546875 241.48095703125009 -3.46435546875Q240.79980468750009 -3.46435546875 240.00878906250009 -3.46435546875Q239.43017578125009 -3.46435546875 238.89184570312509 -3.46435546875Q238.35351562500009 -3.46435546875 237.92138671875009 -3.44970703125L237.07910156250009 -1.51611328125Q236.96923828125009 -1.2451171875 236.84472656250009 -0.9228515625Q236.72021484375009 -0.6005859375 236.72021484375009 -0.27099609375Q236.72021484375009 -0.17578125 236.73486328125009 -0.113525390625Q236.74951171875009 -0.05126953125 236.76416015625009 -0.029296875V0.0H235.27001953125009V-0.029296875Q235.40185546875009 -0.16845703125 235.59960937500009 -0.523681640625Q235.79736328125009 -0.87890625 236.03173828125009 -1.41357421875L240.22851562500009 -10.72265625H240.81445312500009L244.79150390625009 -1.7724609375Q244.93066406250009 -1.45751953125 245.08081054687509 -1.160888671875Q245.23095703125009 -0.8642578125 245.36279296875009 -0.6298828125Q245.49462890625009 -0.3955078125 245.59716796875009 -0.234375Q245.69970703125009 -0.0732421875 245.73632812500009 -0.029296875V0.0ZM238.98339843750009 -4.09423828125Q239.40820312500009 -4.09423828125 239.85498046875009 -4.097900390625Q240.30175781250009 -4.1015625 240.73022460937509 -4.105224609375Q241.15869140625009 -4.10888671875 241.55419921875009 -4.112548828125Q241.94970703125009 -4.1162109375 242.27197265625009 -4.12353515625L240.21386718750009 -8.7744140625L238.19238281250009 -4.09423828125Z M252.74121093750009 -9.873046875Q252.72656250000009 -9.052734375 252.71191406250009 -8.28369140625Q252.70458984375009 -7.9541015625 252.70092773437509 -7.60986328125Q252.69726562500009 -7.265625 252.69360351562509 -6.932373046875Q252.68994140625009 -6.59912109375 252.68627929687509 -6.295166015625Q252.68261718750009 -5.9912109375 252.68261718750009 -5.7568359375Q252.68261718750009 -5.26611328125 252.68994140625009 -4.5703125Q252.69726562500009 -3.87451171875 252.70825195312509 -3.14208984375Q252.71923828125009 -2.40966796875 252.74121093750009 -1.73583984375Q252.76318359375009 -1.06201171875 252.79248046875009 -0.615234375Q252.89501953125009 -0.6005859375 253.06713867187509 -0.582275390625Q253.23925781250009 -0.56396484375 253.42968750000009 -0.552978515625Q253.62011718750009 -0.5419921875 253.80322265625009 -0.53466796875Q253.98632812500009 -0.52734375 254.11083984375009 -0.52734375Q254.62353515625009 -0.52734375 255.16186523437509 -0.596923828125Q255.70019531250009 -0.66650390625 256.2019042968751 -0.85693359375Q256.7036132812501 -1.04736328125 257.1467285156251 -1.380615234375Q257.5898437500001 -1.7138671875 257.9230957031251 -2.2412109375Q258.2563476562501 -2.7685546875 258.4467773437501 -3.511962890625Q258.6372070312501 -4.25537109375 258.6372070312501 -5.26611328125Q258.6372070312501 -6.38671875 258.3662109375001 -7.261962890625Q258.0952148437501 -8.13720703125 257.5715332031251 -8.73779296875Q257.0478515625001 -9.33837890625 256.2751464843751 -9.649658203125Q255.50244140625009 -9.9609375 254.49902343750009 -9.9609375Q254.30126953125009 -9.9609375 254.05224609375009 -9.949951171875Q253.80322265625009 -9.93896484375 253.55786132812509 -9.927978515625Q253.31250000000009 -9.9169921875 253.09643554687509 -9.898681640625Q252.88037109375009 -9.88037109375 252.74121093750009 -9.873046875ZM251.13720703125009 -10.5322265625Q251.30566406250009 -10.52490234375 251.45214843750009 -10.517578125Q251.57666015625009 -10.51025390625 251.70849609375009 -10.506591796875Q251.84033203125009 -10.5029296875 251.92089843750009 -10.5029296875Q252.06005859375009 -10.5029296875 252.38598632812509 -10.517578125Q252.71191406250009 -10.5322265625 253.12939453125009 -10.546875Q253.54687500000009 -10.5615234375 253.99731445312509 -10.576171875Q254.44775390625009 -10.5908203125 254.84326171875009 -10.5908203125Q255.90527343750009 -10.5908203125 256.8647460937501 -10.3271484375Q257.8242187500001 -10.0634765625 258.5493164062501 -9.462890625Q259.2744140625001 -8.8623046875 259.6992187500001 -7.88818359375Q260.1240234375001 -6.9140625 260.1240234375001 -5.4931640625Q260.1240234375001 -4.47509765625 259.9006347656251 -3.662109375Q259.6772460937501 -2.84912109375 259.2744140625001 -2.2265625Q258.8715820312501 -1.60400390625 258.3112792968751 -1.160888671875Q257.7509765625001 -0.7177734375 257.0734863281251 -0.43212890625Q256.3959960937501 -0.146484375 255.6269531250001 -0.0146484375Q254.85791015625009 0.1171875 254.03759765625009 0.1171875Q253.74462890625009 0.1171875 253.33081054687509 0.098876953125Q252.91699218750009 0.08056640625 252.49951171875009 0.05859375Q252.08203125000009 0.03662109375 251.71215820312509 0.018310546875Q251.34228515625009 0.0 251.13720703125009 0.0V-0.029296875Q251.18115234375009 -0.18310546875 251.22143554687509 -0.41015625Q251.26171875000009 -0.63720703125 251.29101562500009 -0.97412109375Q251.32031250000009 -1.31103515625 251.33496093750009 -1.776123046875Q251.34960937500009 -2.2412109375 251.34960937500009 -2.86376953125V-7.6318359375Q251.34960937500009 -8.25439453125 251.33496093750009 -8.726806640625Q251.32031250000009 -9.19921875 251.29101562500009 -9.539794921875Q251.26171875000009 -9.88037109375 251.22143554687509 -10.11474609375Q251.18115234375009 -10.34912109375 251.13720703125009 -10.5029296875Z M266.3452148437501 -10.5029296875Q267.2607421875001 -10.5029296875 268.1652832031251 -10.51025390625Q269.0698242187501 -10.517578125 269.8242187500001 -10.528564453125Q270.5786132812501 -10.53955078125 271.1132812500001 -10.5615234375Q271.6479492187501 -10.58349609375 271.8383789062501 -10.6201171875L271.4794921875001 -9.64599609375Q271.2377929687501 -9.7119140625 270.9155273437501 -9.76318359375Q270.6372070312501 -9.80712890625 270.2380371093751 -9.847412109375Q269.8388671875001 -9.8876953125 269.3188476562501 -9.8876953125Q269.1430664062501 -9.8876953125 268.8977050781251 -9.876708984375Q268.6523437500001 -9.86572265625 268.4252929687501 -9.85107421875Q268.1616210937501 -9.83642578125 267.8906250000001 -9.82177734375V-5.82275390625Q268.6450195312501 -5.830078125 269.2529296875001 -5.86669921875Q269.8608398437501 -5.9033203125 270.2856445312501 -5.93994140625Q270.7836914062501 -5.98388671875 271.1645507812501 -6.04248046875L270.9375000000001 -4.98046875Q270.4321289062501 -5.04638671875 269.9047851562501 -5.10498046875Q269.4506835937501 -5.15625 268.9160156250001 -5.196533203125Q268.3813476562501 -5.23681640625 267.8906250000001 -5.23681640625V-0.64453125Q268.7548828125001 -0.64453125 269.4799804687501 -0.7177734375Q270.2050781250001 -0.791015625 270.7470703125001 -0.88623046875Q271.3769531250001 -0.98876953125 271.8969726562501 -1.1279296875L271.6845703125001 0.05859375Q271.5966796875001 0.05126953125 271.4208984375001 0.0439453125Q271.2451171875001 0.03662109375 271.0290527343751 0.029296875Q270.8129882812501 0.02197265625 270.5749511718751 0.018310546875Q270.3369140625001 0.0146484375 270.1245117187501 0.010986328125Q269.9121093750001 0.00732421875 269.7473144531251 0.003662109375Q269.5825195312501 0.0 269.5092773437501 0.0H266.3452148437501V-0.029296875Q266.3891601562501 -0.18310546875 266.4294433593751 -0.41015625Q266.4697265625001 -0.63720703125 266.4990234375001 -0.97412109375Q266.5283203125001 -1.31103515625 266.5429687500001 -1.776123046875Q266.5576171875001 -2.2412109375 266.5576171875001 -2.86376953125V-7.6318359375Q266.5576171875001 -8.25439453125 266.5429687500001 -8.719482421875Q266.5283203125001 -9.1845703125 266.4990234375001 -9.525146484375Q266.4697265625001 -9.86572265625 266.4294433593751 -10.0927734375Q266.3891601562501 -10.31982421875 266.3452148437501 -10.4736328125V-10.5029296875Z M294.0512695312501 -9.11865234375 296.9809570312501 -2.0068359375 299.8300781250001 -8.98681640625Q299.9985351562501 -9.4189453125 300.0791015625001 -9.71923828125Q300.1596679687501 -10.01953125 300.1596679687501 -10.23193359375Q300.1596679687501 -10.2978515625 300.1523437500001 -10.367431640625Q300.1450195312501 -10.43701171875 300.1303710937501 -10.4736328125V-10.5029296875H301.5805664062501V-10.4736328125Q301.4340820312501 -10.3125 301.2619628906251 -9.9609375Q301.0898437500001 -9.609375 300.8627929687501 -9.08935546875L296.9516601562501 0.22705078125H296.3950195312501L293.5458984375001 -6.68701171875L290.9458007812501 0.22705078125H290.3964843750001L286.8076171875001 -8.73046875Q286.6757812500001 -9.04541015625 286.5402832031251 -9.33837890625Q286.4047851562501 -9.63134765625 286.2839355468751 -9.86572265625Q286.1630859375001 -10.10009765625 286.0642089843751 -10.26123046875Q285.9653320312501 -10.42236328125 285.9213867187501 -10.4736328125V-10.5029296875H287.9501953125001V-10.4736328125Q287.9355468750001 -10.39306640625 287.9355468750001 -10.34912109375Q287.9355468750001 -10.30517578125 287.9355468750001 -10.24658203125Q287.9355468750001 -9.99755859375 287.9904785156251 -9.71923828125Q288.0454101562501 -9.44091796875 288.2065429687501 -9.04541015625L290.9604492187501 -2.08740234375L293.5898437500001 -9.08935546875Z M306.9741210937501 -0.029296875Q307.0180664062501 -0.18310546875 307.0546875000001 -0.41015625Q307.0913085937501 -0.63720703125 307.1206054687501 -0.97412109375Q307.1499023437501 -1.31103515625 307.1645507812501 -1.776123046875Q307.1791992187501 -2.2412109375 307.1791992187501 -2.86376953125V-7.6318359375Q307.1791992187501 -8.25439453125 307.1645507812501 -8.719482421875Q307.1499023437501 -9.1845703125 307.1206054687501 -9.525146484375Q307.0913085937501 -9.86572265625 307.0546875000001 -10.0927734375Q307.0180664062501 -10.31982421875 306.9741210937501 -10.4736328125V-10.5029296875H308.7246093750001V-10.4736328125Q308.6806640625001 -10.31982421875 308.6403808593751 -10.0927734375Q308.6000976562501 -9.86572265625 308.5744628906251 -9.525146484375Q308.5488281250001 -9.1845703125 308.5305175781251 -8.719482421875Q308.5122070312501 -8.25439453125 308.5122070312501 -7.6318359375V-2.86376953125Q308.5122070312501 -2.2412109375 308.5305175781251 -1.776123046875Q308.5488281250001 -1.31103515625 308.5744628906251 -0.97412109375Q308.6000976562501 -0.63720703125 308.6403808593751 -0.41015625Q308.6806640625001 -0.18310546875 308.7246093750001 -0.029296875V0.0H306.9741210937501Z M318.14648437500017 -9.8583984375Q317.28222656250017 -9.8583984375 316.58642578125017 -9.781494140625Q315.89062500000017 -9.70458984375 315.38525390625017 -9.61669921875Q314.79931640625017 -9.5068359375 314.33789062500017 -9.375L314.55029296875017 -10.5615234375Q314.63818359375017 -10.55419921875 314.81396484375017 -10.546875Q314.98974609375017 -10.53955078125 315.20581054687517 -10.5322265625Q315.42187500000017 -10.52490234375 315.65991210937517 -10.521240234375Q315.89794921875017 -10.517578125 316.11035156250017 -10.513916015625Q316.32275390625017 -10.51025390625 316.48754882812517 -10.506591796875Q316.65234375000017 -10.5029296875 316.72558593750017 -10.5029296875H320.90771484375017Q320.98095703125017 -10.5029296875 321.14575195312517 -10.506591796875Q321.31054687500017 -10.51025390625 321.52294921875017 -10.513916015625Q321.73535156250017 -10.517578125 321.97338867187517 -10.521240234375Q322.21142578125017 -10.52490234375 322.42749023437517 -10.5322265625Q322.64355468750017 -10.53955078125 322.81933593750017 -10.546875Q322.99511718750017 -10.55419921875 323.08300781250017 -10.5615234375L323.29541015625017 -9.375Q322.82666015625017 -9.5068359375 322.24072265625017 -9.61669921875Q321.73535156250017 -9.70458984375 321.03955078125017 -9.781494140625Q320.34375000000017 -9.8583984375 319.47949218750017 -9.8583984375V-2.86376953125Q319.47949218750017 -2.2412109375 319.49780273437517 -1.776123046875Q319.51611328125017 -1.31103515625 319.54174804687517 -0.97412109375Q319.56738281250017 -0.63720703125 319.60766601562517 -0.41015625Q319.64794921875017 -0.18310546875 319.69189453125017 -0.029296875V0.0H317.94140625000017V-0.029296875Q317.98535156250017 -0.18310546875 318.02197265625017 -0.41015625Q318.05859375000017 -0.63720703125 318.08789062500017 -0.97412109375Q318.11718750000017 -1.31103515625 318.13183593750017 -1.776123046875Q318.14648437500017 -2.2412109375 318.14648437500017 -2.86376953125Z M336.10839843750017 -5.0244140625Q335.81542968750017 -5.03173828125 335.37597656250017 -5.035400390625Q334.93652343750017 -5.0390625 334.42016601562517 -5.04638671875Q333.90380859375017 -5.0537109375 333.34350585937517 -5.057373046875Q332.78320312500017 -5.06103515625 332.24853515625017 -5.064697265625Q331.71386718750017 -5.068359375 331.23046875000017 -5.06103515625Q330.74707031250017 -5.0537109375 330.38818359375017 -5.0390625V-2.86376953125Q330.38818359375017 -2.2412109375 330.40649414062517 -1.776123046875Q330.42480468750017 -1.31103515625 330.45043945312517 -0.97412109375Q330.47607421875017 -0.63720703125 330.51635742187517 -0.41015625Q330.55664062500017 -0.18310546875 330.60058593750017 -0.029296875V0.0H328.84277343750017V-0.029296875Q328.88671875000017 -0.18310546875 328.92700195312517 -0.41015625Q328.96728515625017 -0.63720703125 328.99658203125017 -0.97412109375Q329.02587890625017 -1.31103515625 329.04052734375017 -1.776123046875Q329.05517578125017 -2.2412109375 329.05517578125017 -2.86376953125V-7.6318359375Q329.05517578125017 -8.25439453125 329.04052734375017 -8.719482421875Q329.02587890625017 -9.1845703125 328.99658203125017 -9.525146484375Q328.96728515625017 -9.86572265625 328.92700195312517 -10.0927734375Q328.88671875000017 -10.31982421875 328.84277343750017 -10.4736328125V-10.5029296875H330.60058593750017V-10.4736328125Q330.55664062500017 -10.31982421875 330.51635742187517 -10.0927734375Q330.47607421875017 -9.86572265625 330.45043945312517 -9.525146484375Q330.42480468750017 -9.1845703125 330.40649414062517 -8.719482421875Q330.38818359375017 -8.25439453125 330.38818359375017 -7.6318359375V-5.7568359375Q330.76904296875017 -5.7421875 331.25244140625017 -5.738525390625Q331.73583984375017 -5.73486328125 332.26318359375017 -5.738525390625Q332.79052734375017 -5.7421875 333.33618164062517 -5.74951171875Q333.88183593750017 -5.7568359375 334.39086914062517 -5.767822265625Q334.89990234375017 -5.77880859375 335.34301757812517 -5.79345703125Q335.78613281250017 -5.80810546875 336.10839843750017 -5.82275390625V-7.6318359375Q336.10839843750017 -8.25439453125 336.09008789062517 -8.719482421875Q336.07177734375017 -9.1845703125 336.04614257812517 -9.525146484375Q336.02050781250017 -9.86572265625 335.98022460937517 -10.0927734375Q335.93994140625017 -10.31982421875 335.89599609375017 -10.4736328125V-10.5029296875H337.65380859375017V-10.4736328125Q337.60986328125017 -10.31982421875 337.56958007812517 -10.0927734375Q337.52929687500017 -9.86572265625 337.50000000000017 -9.525146484375Q337.47070312500017 -9.1845703125 337.45605468750017 -8.719482421875Q337.44140625000017 -8.25439453125 337.44140625000017 -7.6318359375V-2.86376953125Q337.44140625000017 -2.2412109375 337.45605468750017 -1.776123046875Q337.47070312500017 -1.31103515625 337.50000000000017 -0.97412109375Q337.52929687500017 -0.63720703125 337.56958007812517 -0.41015625Q337.60986328125017 -0.18310546875 337.65380859375017 -0.029296875V0.0H335.89599609375017V-0.029296875Q335.93994140625017 -0.18310546875 335.98022460937517 -0.41015625Q336.02050781250017 -0.63720703125 336.04614257812517 -0.97412109375Q336.07177734375017 -1.31103515625 336.09008789062517 -1.776123046875Q336.10839843750017 -2.2412109375 336.10839843750017 -2.86376953125Z M354.79101562500017 -0.64453125Q355.65527343750017 -0.64453125 356.38037109375017 -0.7177734375Q357.10546875000017 -0.791015625 357.64746093750017 -0.88623046875Q358.27734375000017 -0.98876953125 358.79736328125017 -1.1279296875L358.58496093750017 0.05859375Q358.49707031250017 0.05126953125 358.32128906250017 0.0439453125Q358.14550781250017 0.03662109375 357.92944335937517 0.029296875Q357.71337890625017 0.02197265625 357.47534179687517 0.018310546875Q357.23730468750017 0.0146484375 357.02490234375017 0.010986328125Q356.81250000000017 0.00732421875 356.64770507812517 0.003662109375Q356.48291015625017 0.0 356.40966796875017 0.0H353.24560546875017V-0.029296875Q353.28955078125017 -0.18310546875 353.32983398437517 -0.41015625Q353.37011718750017 -0.63720703125 353.39941406250017 -0.97412109375Q353.42871093750017 -1.31103515625 353.44335937500017 -1.776123046875Q353.45800781250017 -2.2412109375 353.45800781250017 -2.86376953125V-7.6318359375Q353.45800781250017 -8.25439453125 353.44335937500017 -8.719482421875Q353.42871093750017 -9.1845703125 353.39941406250017 -9.525146484375Q353.37011718750017 -9.86572265625 353.32983398437517 -10.0927734375Q353.28955078125017 -10.31982421875 353.24560546875017 -10.4736328125V-10.5029296875H355.00341796875017V-10.4736328125Q354.95947265625017 -10.31982421875 354.91918945312517 -10.0927734375Q354.87890625000017 -9.86572265625 354.85327148437517 -9.525146484375Q354.82763671875017 -9.1845703125 354.80932617187517 -8.719482421875Q354.79101562500017 -8.25439453125 354.79101562500017 -7.6318359375Z M369.43505859375017 -10.6787109375Q370.65820312500017 -10.6787109375 371.69458007812517 -10.279541015625Q372.73095703125017 -9.88037109375 373.48535156250017 -9.158935546875Q374.23974609375017 -8.4375 374.66455078125017 -7.4267578125Q375.08935546875017 -6.416015625 375.08935546875017 -5.19287109375Q375.08935546875017 -4.4970703125 374.92822265625017 -3.8232421875Q374.76708984375017 -3.1494140625 374.45581054687517 -2.548828125Q374.14453125000017 -1.9482421875 373.69042968750017 -1.439208984375Q373.23632812500017 -0.93017578125 372.65405273437517 -0.560302734375Q372.07177734375017 -0.1904296875 371.36865234375017 0.018310546875Q370.66552734375017 0.22705078125 369.85253906250017 0.22705078125Q368.62939453125017 0.22705078125 367.59301757812517 -0.164794921875Q366.55664062500017 -0.556640625 365.80224609375017 -1.2744140625Q365.04785156250017 -1.9921875 364.62304687500017 -2.999267578125Q364.19824218750017 -4.00634765625 364.19824218750017 -5.23681640625Q364.19824218750017 -5.9326171875 364.35937500000017 -6.6064453125Q364.52050781250017 -7.2802734375 364.83178710937517 -7.88818359375Q365.14306640625017 -8.49609375 365.59350585937517 -9.005126953125Q366.04394531250017 -9.51416015625 366.62622070312517 -9.8876953125Q367.20849609375017 -10.26123046875 367.91528320312517 -10.469970703125Q368.62207031250017 -10.6787109375 369.43505859375017 -10.6787109375ZM369.85253906250017 -0.43212890625Q370.66552734375017 -0.43212890625 371.33935546875017 -0.72509765625Q372.01318359375017 -1.01806640625 372.50024414062517 -1.57470703125Q372.98730468750017 -2.13134765625 373.25830078125017 -2.933349609375Q373.52929687500017 -3.7353515625 373.52929687500017 -4.75341796875Q373.52929687500017 -5.88134765625 373.26928710937517 -6.844482421875Q373.00927734375017 -7.8076171875 372.49658203125017 -8.514404296875Q371.98388671875017 -9.22119140625 371.21850585937517 -9.620361328125Q370.45312500000017 -10.01953125 369.43505859375017 -10.01953125Q368.62207031250017 -10.01953125 367.94824218750017 -9.730224609375Q367.27441406250017 -9.44091796875 366.78735351562517 -8.8916015625Q366.30029296875017 -8.34228515625 366.02929687500017 -7.5439453125Q365.75830078125017 -6.74560546875 365.75830078125017 -5.7275390625Q365.75830078125017 -4.60693359375 366.01464843750017 -3.636474609375Q366.27099609375017 -2.666015625 366.78369140625017 -1.95556640625Q367.29638671875017 -1.2451171875 368.06542968750017 -0.838623046875Q368.83447265625017 -0.43212890625 369.85253906250017 -0.43212890625Z M381.8964843750002 -10.5029296875V-10.4736328125Q381.8818359375002 -10.43701171875 381.8745117187502 -10.36376953125Q381.8671875000002 -10.29052734375 381.8671875000002 -10.23193359375Q381.8671875000002 -10.0048828125 381.9294433593752 -9.730224609375Q381.9916992187502 -9.45556640625 382.1674804687502 -9.04541015625L385.4121093750002 -1.728515625L388.5468750000002 -8.98681640625Q388.6567382812502 -9.2578125 388.7812500000002 -9.580078125Q388.9057617187502 -9.90234375 388.9057617187502 -10.23193359375Q388.9057617187502 -10.31982421875 388.8911132812502 -10.382080078125Q388.8764648437502 -10.4443359375 388.8618164062502 -10.4736328125V-10.5029296875H390.3632812500002V-10.4736328125Q390.2241210937502 -10.33447265625 390.0263671875002 -9.9755859375Q389.8286132812502 -9.61669921875 389.5942382812502 -9.08935546875L385.3974609375002 0.22705078125H384.8115234375002L380.8344726562502 -8.73046875Q380.6953125000002 -9.04541015625 380.5451660156252 -9.33837890625Q380.3950195312502 -9.63134765625 380.2631835937502 -9.869384765625Q380.1313476562502 -10.107421875 380.0288085937502 -10.2685546875Q379.9262695312502 -10.4296875 379.8896484375002 -10.4736328125V-10.5029296875Z M395.6103515625002 -10.5029296875Q396.5258789062502 -10.5029296875 397.4304199218752 -10.51025390625Q398.3349609375002 -10.517578125 399.0893554687502 -10.528564453125Q399.8437500000002 -10.53955078125 400.3784179687502 -10.5615234375Q400.9130859375002 -10.58349609375 401.1035156250002 -10.6201171875L400.7446289062502 -9.64599609375Q400.5029296875002 -9.7119140625 400.1806640625002 -9.76318359375Q399.9023437500002 -9.80712890625 399.5031738281252 -9.847412109375Q399.1040039062502 -9.8876953125 398.5839843750002 -9.8876953125Q398.4082031250002 -9.8876953125 398.1628417968752 -9.876708984375Q397.9174804687502 -9.86572265625 397.6904296875002 -9.85107421875Q397.4267578125002 -9.83642578125 397.1557617187502 -9.82177734375V-5.82275390625Q397.9101562500002 -5.830078125 398.5180664062502 -5.86669921875Q399.1259765625002 -5.9033203125 399.5507812500002 -5.93994140625Q400.0488281250002 -5.98388671875 400.4296875000002 -6.04248046875L400.2026367187502 -4.98046875Q399.6972656250002 -5.04638671875 399.1699218750002 -5.10498046875Q398.7158203125002 -5.15625 398.1811523437502 -5.196533203125Q397.6464843750002 -5.23681640625 397.1557617187502 -5.23681640625V-0.64453125Q398.0200195312502 -0.64453125 398.7451171875002 -0.7177734375Q399.4702148437502 -0.791015625 400.0122070312502 -0.88623046875Q400.6420898437502 -0.98876953125 401.1621093750002 -1.1279296875L400.9497070312502 0.05859375Q400.8618164062502 0.05126953125 400.6860351562502 0.0439453125Q400.5102539062502 0.03662109375 400.2941894531252 0.029296875Q400.0781250000002 0.02197265625 399.8400878906252 0.018310546875Q399.6020507812502 0.0146484375 399.3896484375002 0.010986328125Q399.1772460937502 0.00732421875 399.0124511718752 0.003662109375Q398.8476562500002 0.0 398.7744140625002 0.0H395.6103515625002V-0.029296875Q395.6542968750002 -0.18310546875 395.6945800781252 -0.41015625Q395.7348632812502 -0.63720703125 395.7641601562502 -0.97412109375Q395.7934570312502 -1.31103515625 395.8081054687502 -1.776123046875Q395.8227539062502 -2.2412109375 395.8227539062502 -2.86376953125V-7.6318359375Q395.8227539062502 -8.25439453125 395.8081054687502 -8.719482421875Q395.7934570312502 -9.1845703125 395.7641601562502 -9.525146484375Q395.7348632812502 -9.86572265625 395.6945800781252 -10.0927734375Q395.6542968750002 -10.31982421875 395.6103515625002 -10.4736328125V-10.5029296875Z" fill="#6E635B" /></g></svg>