<svg xmlns="http://www.w3.org/2000/svg" viewBox="0 0 116 116" width="116" height="116"><g transform="translate(8,8) scale(1.0)"><path d="M19,83 C19,80.4 23,80.4 27,80.4 L73,80.4 C77,80.4 81,80.4 81,83" fill="none" stroke="#241A15" stroke-width="3.2" stroke-linecap="round"/><path d="M26,80.4 L26,56" fill="none" stroke="#241A15" stroke-width="3.2" stroke-linecap="round"/><path d="M74,80.4 L74,56" fill="none" stroke="#241A15" stroke-width="3.2" stroke-linecap="round"/><path d="M26,56 Q32.7,62.4 39.3,56 Q46,62.4 52.7,56 Q59.3,62.4 66,56 Q70.6,60.7 74,56" fill="none" stroke="#241A15" stroke-width="2.7" stroke-linecap="round" stroke-linejoin="round"/><path d="M38,56 L38,42" fill="none" stroke="#241A15" stroke-width="3.2" stroke-linecap="round"/><path d="M62,56 L62,42" fill="none" stroke="#241A15" stroke-width="3.2" stroke-linecap="round"/><path d="M38,42 Q44.5,48 51,42 Q57.5,48 62,42" fill="none" stroke="#241A15" stroke-width="2.7" stroke-linecap="round" stroke-linejoin="round"/><path d="M50,42 L50,31.5" fill="none" stroke="#241A15" stroke-width="3.2" stroke-linecap="round"/><path d="M50,30.5 C46.2,26.8 47.4,22 50,18.6 C52.6,22 53.8,26.8 50,30.5 Z" fill="#241A15"/></g></svg>