<svg xmlns="http://www.w3.org/2000/svg" viewBox="0 0 1187.6 176.0" width="1187.6" height="176.0"><g transform="translate(40.000,136.000) scale(1.0000)"><path d="M24.36 0.0V-2.52L35.4 -4.32V-93.0H15.6L6.4799999999999995 -69.24H3.0V-96.0H81.11999999999999V-69.24H77.52L68.52 -93.0H48.6V-4.32L59.64 -2.52V0.0Z M87.47999999999999 -2.4 95.88 -3.5999999999999996V-92.39999999999999L87.47999999999999 -93.6V-96.0H107.88V-49.199999999999996Q112.32 -55.68 118.32 -59.459999999999994Q124.32 -63.239999999999995 131.28 -63.239999999999995Q139.92 -63.239999999999995 144.89999999999998 -58.92Q149.88 -54.6 149.88 -46.08V-3.5999999999999996L158.27999999999997 -2.4V0.0H130.68V-2.4L137.88 -3.5999999999999996V-45.839999999999996Q137.88 -52.08 135.35999999999999 -55.5Q132.83999999999997 -58.919999999999995 127.56 -58.919999999999995Q122.03999999999999 -58.919999999999995 116.94 -54.89999999999999Q111.83999999999999 -50.879999999999995 107.88 -45.0V-3.5999999999999996L115.07999999999998 -2.4V0.0H87.47999999999999Z M166.56 -31.08Q166.56 -40.68 170.7 -47.94Q174.84 -55.199999999999996 181.86 -59.22Q188.88 -63.239999999999995 197.52 -63.239999999999995Q205.08 -63.239999999999995 211.08 -59.879999999999995Q217.08 -56.519999999999996 220.44 -50.58Q223.8 -44.64 223.92000000000002 -36.96H179.76V-25.08Q179.76 -14.52 184.5 -7.9799999999999995Q189.24 -1.44 198.24 -1.44Q206.52 -1.44 212.88 -6.119999999999999Q219.24 -10.799999999999999 220.68 -18.24H223.44Q221.76 -9.36 214.92000000000002 -4.08Q208.08 1.2 198.24 1.2Q189.36 1.2 182.16000000000003 -2.82Q174.96 -6.84 170.76 -14.16Q166.56 -21.48 166.56 -31.08ZM210.72 -39.96Q210.72 -50.4 207.48000000000002 -55.5Q204.24 -60.599999999999994 197.4 -60.599999999999994Q189.36 -60.599999999999994 184.92000000000002 -54.959999999999994Q180.48000000000002 -49.32 179.88 -39.96Z M283.68 0.0V-2.52L294.71999999999997 -4.32V-93.0H274.92L265.8 -69.24H262.32V-96.0H340.44V-69.24H336.84L327.84 -93.0H307.92V-4.32L318.96 -2.52V0.0Z M341.4 -14.76Q341.4 -26.04 350.88 -30.779999999999998Q360.36 -35.519999999999996 372.84 -35.519999999999996H380.88V-44.76Q380.88 -51.0 379.5 -54.42Q378.12 -57.839999999999996 375.24 -59.22Q372.36 -60.599999999999994 367.44 -60.599999999999994Q361.8 -60.599999999999994 359.03999999999996 -58.379999999999995Q356.28 -56.16 356.28 -52.44Q356.28 -48.96 359.64 -47.879999999999995Q359.64 -44.879999999999995 357.36 -42.599999999999994Q355.08 -40.32 351.96 -40.32Q348.6 -40.32 346.56 -42.18Q344.52 -44.04 344.52 -47.879999999999995Q344.52 -54.839999999999996 351.48 -59.03999999999999Q358.44 -63.239999999999995 368.88 -63.239999999999995Q392.88 -63.239999999999995 392.88 -42.36V-8.04Q392.88 -5.3999999999999995 394.02 -4.02Q395.15999999999997 -2.6399999999999997 397.32 -2.6399999999999997Q399.36 -2.6399999999999997 400.56 -4.02Q401.76 -5.3999999999999995 401.76 -7.8H404.28Q404.28 -3.5999999999999996 401.58 -1.1999999999999997Q398.88 1.2 394.08 1.2Q388.56 1.2 384.78 -1.98Q381.0 -5.16 380.88 -11.879999999999999Q378.0 -5.76 372.06 -2.28Q366.12 1.2 358.92 1.2Q351.24 1.2 346.32 -2.82Q341.4 -6.84 341.4 -14.76ZM380.88 -20.4V-32.879999999999995H372.84Q363.0 -32.879999999999995 358.14 -28.499999999999996Q353.28 -24.119999999999997 353.28 -16.2Q353.28 -9.6 356.4 -6.84Q359.52 -4.08 365.52 -4.08Q368.76 -4.08 372.18 -6.0Q375.6 -7.92 378.0 -11.58Q380.4 -15.24 380.88 -20.4Z M410.64 -13.92Q410.64 -17.4 412.5 -19.38Q414.36 -21.36 417.48 -21.36Q419.88 -21.36 421.56 -20.16Q423.24 -18.96 423.96 -16.8Q421.32 -13.92 421.32 -10.68Q421.32 -6.96 424.68 -4.2Q428.04 -1.44 433.68 -1.44Q441.24 -1.44 446.03999999999996 -4.859999999999999Q450.84 -8.28 450.84 -14.04Q450.84 -17.4 448.79999999999995 -19.08Q446.76 -20.759999999999998 440.88 -22.919999999999998L422.76 -29.52Q412.08 -33.36 412.08 -43.8Q412.08 -52.32 417.96 -57.78Q423.84 -63.239999999999995 434.15999999999997 -63.239999999999995Q442.68 -63.239999999999995 448.74 -59.339999999999996Q454.8 -55.44 454.8 -48.239999999999995Q454.8 -45.36 453.24 -43.62Q451.68 -41.879999999999995 449.15999999999997 -41.879999999999995Q446.64 -41.879999999999995 445.02 -43.26Q443.4 -44.64 443.4 -47.04Q444.96 -48.239999999999995 445.55999999999995 -49.62Q446.15999999999997 -51.0 446.15999999999997 -52.919999999999995Q446.15999999999997 -56.28 443.21999999999997 -58.44Q440.28 -60.599999999999994 434.15999999999997 -60.599999999999994Q428.88 -60.599999999999994 425.1 -58.98Q421.32 -57.36 419.4 -54.72Q417.48 -52.08 417.48 -49.32Q417.48 -46.44 419.58000000000004 -44.76Q421.68 -43.08 427.32 -41.04L444.12 -35.04Q450.0 -32.879999999999995 453.0 -29.04Q456.0 -25.2 456.0 -19.08Q456.0 -10.32 450.48 -4.5600000000000005Q444.96 1.2 433.68 1.2Q423.84 1.2 417.24 -2.9999999999999996Q410.64 -7.199999999999999 410.64 -13.92Z M473.64 -15.36V-58.559999999999995L465.12 -59.76V-62.16H473.64V-72.11999999999999L485.64 -75.11999999999999V-62.16H501.24V-59.76L485.64 -58.559999999999995V-15.6Q485.64 -2.88 494.76 -2.88Q496.67999999999995 -2.88 498.41999999999996 -3.48Q500.15999999999997 -4.08 501.17999999999995 -4.68Q502.2 -5.279999999999999 502.44 -5.52L504.0 -3.5999999999999996Q498.59999999999997 1.2 491.03999999999996 1.2Q483.12 1.2 478.38 -2.76Q473.64 -6.72 473.64 -15.36Z M507.12 -31.08Q507.12 -40.68 511.26 -47.94Q515.4 -55.199999999999996 522.42 -59.22Q529.4399999999999 -63.239999999999995 538.0799999999999 -63.239999999999995Q545.64 -63.239999999999995 551.64 -59.879999999999995Q557.64 -56.519999999999996 561.0 -50.58Q564.36 -44.64 564.48 -36.96H520.3199999999999V-25.08Q520.3199999999999 -14.52 525.06 -7.9799999999999995Q529.8 -1.44 538.8 -1.44Q547.0799999999999 -1.44 553.4399999999999 -6.119999999999999Q559.8 -10.799999999999999 561.24 -18.24H564.0Q562.3199999999999 -9.36 555.48 -4.08Q548.64 1.2 538.8 1.2Q529.92 1.2 522.72 -2.82Q515.52 -6.84 511.32 -14.16Q507.12 -21.48 507.12 -31.08ZM551.28 -39.96Q551.28 -50.4 548.04 -55.5Q544.8 -60.599999999999994 537.96 -60.599999999999994Q529.92 -60.599999999999994 525.48 -54.959999999999994Q521.04 -49.32 520.4399999999999 -39.96Z M654.6 1.2 618.84 -91.67999999999999V-7.319999999999999L630.36 -2.52V0.0H604.68V-2.52L615.96 -7.319999999999999V-91.67999999999999L604.92 -93.36V-96.0H631.4399999999999L661.56 -18.96L692.28 -96.0H716.52V-93.36L705.48 -91.67999999999999V-4.32L716.52 -2.52V0.0H681.24V-2.52L692.28 -4.32V-88.08L656.76 1.2Z M727.8 -14.76Q727.8 -26.04 737.28 -30.779999999999998Q746.76 -35.519999999999996 759.24 -35.519999999999996H767.28V-44.76Q767.28 -51.0 765.9 -54.42Q764.52 -57.839999999999996 761.64 -59.22Q758.76 -60.599999999999994 753.8399999999999 -60.599999999999994Q748.1999999999999 -60.599999999999994 745.4399999999999 -58.379999999999995Q742.68 -56.16 742.68 -52.44Q742.68 -48.96 746.04 -47.879999999999995Q746.04 -44.879999999999995 743.76 -42.599999999999994Q741.48 -40.32 738.36 -40.32Q735.0 -40.32 732.96 -42.18Q730.92 -44.04 730.92 -47.879999999999995Q730.92 -54.839999999999996 737.8799999999999 -59.03999999999999Q744.8399999999999 -63.239999999999995 755.28 -63.239999999999995Q779.28 -63.239999999999995 779.28 -42.36V-8.04Q779.28 -5.3999999999999995 780.42 -4.02Q781.56 -2.6399999999999997 783.72 -2.6399999999999997Q785.76 -2.6399999999999997 786.96 -4.02Q788.16 -5.3999999999999995 788.16 -7.8H790.68Q790.68 -3.5999999999999996 787.98 -1.1999999999999997Q785.28 1.2 780.48 1.2Q774.9599999999999 1.2 771.18 -1.98Q767.4 -5.16 767.28 -11.879999999999999Q764.4 -5.76 758.46 -2.28Q752.52 1.2 745.3199999999999 1.2Q737.64 1.2 732.72 -2.82Q727.8 -6.84 727.8 -14.76ZM767.28 -20.4V-32.879999999999995H759.24Q749.4 -32.879999999999995 744.54 -28.499999999999996Q739.68 -24.119999999999997 739.68 -16.2Q739.68 -9.6 742.8 -6.84Q745.92 -4.08 751.92 -4.08Q755.16 -4.08 758.5799999999999 -6.0Q762.0 -7.92 764.4 -11.58Q766.8 -15.24 767.28 -20.4Z M793.68 0.0V-2.4L802.0799999999999 -3.5999999999999996V-92.39999999999999L793.68 -93.6V-96.0H814.0799999999999V-34.44L841.56 -57.0L831.12 -59.76V-62.16H853.68V-59.76L846.0 -57.0L826.0799999999999 -40.68L854.16 -3.48L860.64 -2.4V0.0H832.56V-2.4L839.76 -3.5999999999999996L817.1999999999999 -33.36L814.0799999999999 -30.72V-3.5999999999999996L821.28 -2.4V0.0Z M861.5999999999999 -31.08Q861.5999999999999 -40.68 865.74 -47.94Q869.88 -55.199999999999996 876.9 -59.22Q883.92 -63.239999999999995 892.56 -63.239999999999995Q900.1199999999999 -63.239999999999995 906.1199999999999 -59.879999999999995Q912.1199999999999 -56.519999999999996 915.4799999999999 -50.58Q918.8399999999999 -44.64 918.9599999999999 -36.96H874.8V-25.08Q874.8 -14.52 879.54 -7.9799999999999995Q884.28 -1.44 893.28 -1.44Q901.56 -1.44 907.92 -6.119999999999999Q914.28 -10.799999999999999 915.7199999999999 -18.24H918.4799999999999Q916.8 -9.36 909.9599999999999 -4.08Q903.1199999999999 1.2 893.28 1.2Q884.4 1.2 877.1999999999999 -2.82Q869.9999999999999 -6.84 865.8 -14.16Q861.5999999999999 -21.48 861.5999999999999 -31.08ZM905.76 -39.96Q905.76 -50.4 902.52 -55.5Q899.28 -60.599999999999994 892.4399999999999 -60.599999999999994Q884.4 -60.599999999999994 879.96 -54.959999999999994Q875.52 -49.32 874.92 -39.96Z M927.9599999999999 -2.4 936.3599999999999 -3.5999999999999996V-58.559999999999995L927.9599999999999 -59.76V-62.16H948.3599999999999V-52.919999999999995Q955.92 -63.239999999999995 965.3999999999999 -63.239999999999995Q969.9599999999999 -63.239999999999995 973.4399999999999 -60.89999999999999Q976.92 -58.559999999999995 976.92 -54.239999999999995Q976.92 -51.12 974.8799999999999 -49.019999999999996Q972.8399999999999 -46.92 969.4799999999999 -46.92Q965.6399999999999 -46.92 963.2399999999999 -49.92Q964.56 -51.6 964.56 -53.519999999999996Q964.56 -55.559999999999995 963.18 -56.81999999999999Q961.8 -58.08 959.5199999999999 -58.08Q956.9999999999999 -58.08 954.3599999999999 -55.739999999999995Q951.7199999999999 -53.4 948.3599999999999 -48.48V-3.5999999999999996L957.9599999999999 -2.4V0.0H927.9599999999999Z M981.9599999999999 -2.4 990.3599999999999 -3.5999999999999996V-58.559999999999995L981.9599999999999 -59.76V-62.16H1002.3599999999999V-52.919999999999995Q1009.92 -63.239999999999995 1019.3999999999999 -63.239999999999995Q1023.9599999999999 -63.239999999999995 1027.4399999999998 -60.89999999999999Q1030.9199999999998 -58.559999999999995 1030.9199999999998 -54.239999999999995Q1030.9199999999998 -51.12 1028.8799999999999 -49.019999999999996Q1026.84 -46.92 1023.4799999999999 -46.92Q1019.6399999999999 -46.92 1017.2399999999999 -49.92Q1018.56 -51.6 1018.56 -53.519999999999996Q1018.56 -55.559999999999995 1017.18 -56.81999999999999Q1015.8 -58.08 1013.5199999999999 -58.08Q1010.9999999999999 -58.08 1008.3599999999999 -55.739999999999995Q1005.7199999999999 -53.4 1002.3599999999999 -48.48V-3.5999999999999996L1011.9599999999999 -2.4V0.0H981.9599999999999Z M1038.48 -13.92Q1038.48 -17.4 1040.3400000000001 -19.38Q1042.2 -21.36 1045.32 -21.36Q1047.72 -21.36 1049.4 -20.16Q1051.08 -18.96 1051.8 -16.8Q1049.16 -13.92 1049.16 -10.68Q1049.16 -6.96 1052.52 -4.2Q1055.88 -1.44 1061.52 -1.44Q1069.08 -1.44 1073.88 -4.859999999999999Q1078.68 -8.28 1078.68 -14.04Q1078.68 -17.4 1076.6399999999999 -19.08Q1074.6 -20.759999999999998 1068.72 -22.919999999999998L1050.6000000000001 -29.52Q1039.92 -33.36 1039.92 -43.8Q1039.92 -52.32 1045.8000000000002 -57.78Q1051.68 -63.239999999999995 1062.0 -63.239999999999995Q1070.52 -63.239999999999995 1076.58 -59.339999999999996Q1082.64 -55.44 1082.64 -48.239999999999995Q1082.64 -45.36 1081.08 -43.62Q1079.52 -41.879999999999995 1077.0 -41.879999999999995Q1074.48 -41.879999999999995 1072.8600000000001 -43.26Q1071.24 -44.64 1071.24 -47.04Q1072.8 -48.239999999999995 1073.4 -49.62Q1074.0 -51.0 1074.0 -52.919999999999995Q1074.0 -56.28 1071.06 -58.44Q1068.1200000000001 -60.599999999999994 1062.0 -60.599999999999994Q1056.72 -60.599999999999994 1052.94 -58.98Q1049.16 -57.36 1047.24 -54.72Q1045.32 -52.08 1045.32 -49.32Q1045.32 -46.44 1047.42 -44.76Q1049.52 -43.08 1055.16 -41.04L1071.96 -35.04Q1077.84 -32.879999999999995 1080.84 -29.04Q1083.84 -25.2 1083.84 -19.08Q1083.84 -10.32 1078.32 -4.5600000000000005Q1072.8 1.2 1061.52 1.2Q1051.68 1.2 1045.08 -2.9999999999999996Q1038.48 -7.199999999999999 1038.48 -13.92Z" fill="#2A201A" /></g><circle cx="1139.80" cy="135.14" r="5.76" fill="#D67A47"/></svg>